<svg width="122" height="130" viewBox="0 0 122 130" fill="none" xmlns="http://www.w3.org/2000/svg">
<path d="M75.1401 113.75V114.25H75.6401H100.853C103.948 114.25 106.396 111.567 106.396 108.333V21.6667C106.396 18.4334 103.948 15.7501 100.853 15.7501H20.1707C17.0765 15.7501 14.628 18.4334 14.628 21.6667V108.333C14.628 111.567 17.0765 114.25 20.1707 114.25H60.5121H61.0121V113.75V75.8329V75.3329H60.5121H50.4267C47.9509 75.3329 45.8841 73.166 45.8841 70.4162V64.9995C45.8841 62.2498 47.951 60.0829 50.4267 60.0829H60.5121H61.0121V59.5829V46.0413C61.0121 38.2079 68.3365 29.0619 80.6828 29.0619L80.6832 29.0619L80.6858 29.0619L80.6974 29.0619L80.7456 29.0623C80.7887 29.0628 80.8535 29.0637 80.9388 29.0654C81.1094 29.069 81.3619 29.0762 81.686 29.0907C82.3345 29.1196 83.2693 29.1775 84.4096 29.2935C86.6917 29.5257 89.7896 29.9899 93.0588 30.9167L93.1936 30.441L93.0588 30.9167C94.3828 31.2919 95.3108 32.6345 95.3108 34.2005V37.9163C95.3108 40.666 93.244 42.833 90.7681 42.833H80.6828C79.2464 42.833 77.8616 43.5983 76.85 44.685C75.8362 45.774 75.1401 47.2451 75.1401 48.7496V59.5829V60.0829H75.6401H89.5397C91.7356 60.0829 93.3815 62.425 92.65 64.782L90.4162 71.9807C90.4162 71.9807 90.4162 71.9807 90.4162 71.9808C89.7883 74.003 88.0415 75.3329 86.1097 75.3329H75.6401H75.1401V75.8329V113.75ZM100.853 5.91675C108.899 5.91675 115.481 12.934 115.481 21.6667V108.333C115.481 117.066 108.899 124.083 100.853 124.083H20.1707C12.125 124.083 5.54266 117.066 5.54266 108.333V21.6667C5.54266 12.934 12.125 5.91675 20.1707 5.91675H100.853Z" fill="#F9F9F9" stroke="#F9F9F9"/>
</svg>
