<svg width="408" height="408" viewBox="0 0 408 408" fill="none" xmlns="http://www.w3.org/2000/svg">
<g filter="url(#filter0_di_27_54)">
<circle cx="204" cy="200" r="200" fill="#7E7E7E"/>
</g>
<g filter="url(#filter1_d_27_54)">
<mask id="path-2-outside-1_27_54" maskUnits="userSpaceOnUse" x="99" y="77" width="206" height="238" fill="black">
<rect fill="white" x="99" y="77" width="206" height="238"/>
<path d="M296.139 237.547C296.139 246.629 294.967 254.637 292.623 261.57C290.377 268.504 287.154 274.51 282.955 279.588C278.854 284.666 273.971 288.914 268.307 292.332C262.643 295.75 256.441 298.484 249.703 300.535C243.062 302.586 235.982 304.051 228.463 304.93C221.041 305.809 213.473 306.248 205.758 306.248C195.602 306.248 186.227 305.467 177.633 303.904C169.039 302.439 160.934 300.096 153.316 296.873C145.797 293.553 138.521 289.305 131.49 284.129C124.557 278.953 117.623 272.654 110.689 265.232L140.572 234.91C143.307 241.648 147.066 247.898 151.852 253.66C156.637 259.324 161.861 264.207 167.525 268.309C173.287 272.41 179.244 275.633 185.396 277.977C191.549 280.32 197.359 281.492 202.828 281.492C209.273 281.492 215.328 281.053 220.992 280.174C226.656 279.197 231.588 277.635 235.787 275.486C239.986 273.338 243.258 270.506 245.602 266.99C248.043 263.377 249.264 258.885 249.264 253.514C249.264 249.412 248.336 245.896 246.48 242.967C244.625 240.037 242.184 237.547 239.156 235.496C236.227 233.348 232.857 231.541 229.049 230.076C225.24 228.611 221.334 227.391 217.33 226.414C213.424 225.34 209.566 224.412 205.758 223.631C201.949 222.752 198.58 221.873 195.65 220.994C189.889 219.334 183.883 217.576 177.633 215.721C171.383 213.768 165.23 211.57 159.176 209.129C153.121 206.688 147.359 203.904 141.891 200.779C136.52 197.557 131.783 193.797 127.682 189.5C123.58 185.105 120.309 180.076 117.867 174.412C115.426 168.65 114.205 162.059 114.205 154.637C114.205 145.75 115.279 137.889 117.428 131.053C119.674 124.119 122.799 118.113 126.803 113.035C130.807 107.957 135.543 103.709 141.012 100.291C146.48 96.7754 152.486 93.9922 159.029 91.9414C165.572 89.793 172.506 88.2793 179.83 87.4004C187.252 86.4238 194.82 85.9355 202.535 85.9355C213.082 85.9355 222.652 86.9121 231.246 88.8652C239.938 90.8184 247.945 93.6016 255.27 97.2148C262.594 100.828 269.283 105.174 275.338 110.252C281.49 115.232 287.252 120.799 292.623 126.951L262.74 157.273C260.396 150.242 257.125 143.895 252.926 138.23C248.824 132.566 244.234 127.732 239.156 123.729C234.078 119.627 228.756 116.502 223.189 114.354C217.623 112.107 212.252 110.984 207.076 110.984C200.338 110.984 194.137 111.473 188.473 112.449C182.809 113.328 177.926 114.842 173.824 116.99C169.82 119.041 166.695 121.873 164.449 125.486C162.203 129.002 161.08 133.396 161.08 138.67C161.08 142.869 161.91 146.434 163.57 149.363C165.23 152.293 167.428 154.783 170.162 156.834C172.994 158.885 176.168 160.594 179.684 161.961C183.199 163.23 186.812 164.354 190.523 165.33C194.332 166.307 198.043 167.186 201.656 167.967C205.367 168.65 208.736 169.432 211.764 170.311C217.623 171.971 223.775 173.729 230.221 175.584C236.666 177.439 243.014 179.637 249.264 182.176C255.514 184.617 261.471 187.449 267.135 190.672C272.799 193.895 277.779 197.752 282.076 202.244C286.373 206.639 289.791 211.766 292.33 217.625C294.869 223.387 296.139 230.027 296.139 237.547Z"/>
</mask>
<path d="M292.623 261.57L285.044 259.008L285.028 259.057L285.012 259.105L292.623 261.57ZM282.955 279.588L276.79 274.49L276.761 274.525L276.732 274.561L282.955 279.588ZM249.703 300.535L247.374 292.882L247.358 292.887L247.343 292.891L249.703 300.535ZM228.463 304.93L227.534 296.984L227.522 296.985L228.463 304.93ZM177.633 303.904L179.064 296.033L179.021 296.025L178.977 296.018L177.633 303.904ZM153.316 296.873L150.085 304.191L150.142 304.217L150.199 304.241L153.316 296.873ZM131.49 284.129L126.705 290.54L126.726 290.556L126.748 290.572L131.49 284.129ZM110.689 265.232L104.991 259.617L99.6033 265.084L104.844 270.694L110.689 265.232ZM140.572 234.91L147.985 231.902L143.412 220.632L134.874 229.295L140.572 234.91ZM151.852 253.66L145.697 258.771L145.719 258.797L145.74 258.823L151.852 253.66ZM167.525 268.309L162.833 274.788L162.86 274.807L162.886 274.826L167.525 268.309ZM220.992 280.174L222.219 288.079L222.285 288.069L222.351 288.058L220.992 280.174ZM245.602 266.99L238.973 262.511L238.959 262.532L238.945 262.553L245.602 266.99ZM239.156 235.496L234.425 241.947L234.546 242.036L234.669 242.119L239.156 235.496ZM217.33 226.414L215.209 234.128L215.321 234.159L215.434 234.186L217.33 226.414ZM205.758 223.631L203.959 231.426L204.054 231.448L204.15 231.468L205.758 223.631ZM195.65 220.994L197.949 213.332L197.907 213.319L197.865 213.307L195.65 220.994ZM177.633 215.721L175.247 223.357L175.301 223.374L175.356 223.39L177.633 215.721ZM141.891 200.779L137.775 207.639L137.848 207.683L137.922 207.725L141.891 200.779ZM127.682 189.5L121.833 194.959L121.864 194.991L121.895 195.024L127.682 189.5ZM117.867 174.412L110.501 177.533L110.511 177.556L110.521 177.579L117.867 174.412ZM117.428 131.053L109.817 128.587L109.806 128.621L109.796 128.654L117.428 131.053ZM141.012 100.291L145.252 107.075L145.295 107.048L145.338 107.02L141.012 100.291ZM159.029 91.9414L161.422 99.5752L161.474 99.559L161.525 99.5421L159.029 91.9414ZM179.83 87.4004L180.783 95.3434L180.829 95.338L180.874 95.332L179.83 87.4004ZM231.246 88.8652L229.473 96.6663L229.483 96.6685L229.492 96.6706L231.246 88.8652ZM275.338 110.252L270.197 116.381L270.25 116.426L270.304 116.47L275.338 110.252ZM292.623 126.951L298.321 132.567L303.53 127.281L298.65 121.69L292.623 126.951ZM262.74 157.273L255.151 159.803L259.278 172.184L268.438 162.889L262.74 157.273ZM252.926 138.23L246.446 142.923L246.473 142.959L246.499 142.995L252.926 138.23ZM239.156 123.729L234.13 129.952L234.166 129.982L234.203 130.011L239.156 123.729ZM223.189 114.354L220.196 121.772L220.252 121.795L220.309 121.817L223.189 114.354ZM188.473 112.449L189.699 120.355L189.766 120.344L189.832 120.333L188.473 112.449ZM173.824 116.99L177.471 124.111L177.504 124.094L177.536 124.077L173.824 116.99ZM164.449 125.486L171.191 129.793L171.217 129.752L171.244 129.71L164.449 125.486ZM170.162 156.834L165.362 163.234L165.416 163.274L165.47 163.314L170.162 156.834ZM179.684 161.961L176.784 169.417L176.875 169.452L176.966 169.485L179.684 161.961ZM190.523 165.33L188.487 173.067L188.512 173.073L188.536 173.079L190.523 165.33ZM201.656 167.967L199.966 175.786L200.086 175.812L200.207 175.834L201.656 167.967ZM211.764 170.311L209.533 177.993L209.558 178.001L209.583 178.008L211.764 170.311ZM249.264 182.176L246.253 189.588L246.303 189.608L246.353 189.627L249.264 182.176ZM282.076 202.244L276.295 207.774L276.325 207.806L276.356 207.837L282.076 202.244ZM292.33 217.625L284.99 220.806L284.999 220.828L285.009 220.851L292.33 217.625ZM288.139 237.547C288.139 245.959 287.051 253.071 285.044 259.008L300.202 264.132C302.882 256.202 304.139 247.299 304.139 237.547H288.139ZM285.012 259.105C283.045 265.179 280.28 270.269 276.79 274.49L289.12 284.686C294.028 278.751 297.709 271.828 300.234 264.036L285.012 259.105ZM276.732 274.561C273.223 278.905 269.051 282.539 264.173 285.483L272.44 299.182C278.891 295.289 284.484 290.427 289.179 284.615L276.732 274.561ZM264.173 285.483C259.11 288.538 253.521 291.011 247.374 292.882L252.032 308.189C259.362 305.958 266.175 302.962 272.44 299.182L264.173 285.483ZM247.343 292.891C241.208 294.786 234.611 296.157 227.534 296.984L229.392 312.876C237.354 311.945 244.917 310.386 252.064 308.179L247.343 292.891ZM227.522 296.985C220.422 297.826 213.168 298.248 205.758 298.248V314.248C213.777 314.248 221.66 313.791 229.404 312.874L227.522 296.985ZM205.758 298.248C196.006 298.248 187.117 297.497 179.064 296.033L176.202 311.775C185.336 313.436 195.197 314.248 205.758 314.248V298.248ZM178.977 296.018C170.96 294.651 163.452 292.475 156.434 289.505L150.199 304.241C158.415 307.717 167.119 310.227 176.289 311.791L178.977 296.018ZM156.548 289.555C149.594 286.484 142.823 282.537 136.233 277.686L126.748 290.572C134.22 296.072 141.999 300.621 150.085 304.191L156.548 289.555ZM136.276 277.718C129.782 272.871 123.199 266.904 116.535 259.771L104.844 270.694C112.047 278.405 119.331 285.036 126.705 290.54L136.276 277.718ZM116.387 270.848L146.27 240.526L134.874 229.295L104.991 259.617L116.387 270.848ZM133.159 237.918C136.212 245.441 140.403 252.397 145.697 258.771L158.006 248.549C153.73 243.4 150.401 237.856 147.985 231.902L133.159 237.918ZM145.74 258.823C150.918 264.952 156.614 270.285 162.833 274.788L172.217 261.829C167.109 258.129 162.355 253.696 157.963 248.497L145.74 258.823ZM162.886 274.826C169.161 279.293 175.715 282.849 182.549 285.452L188.244 270.501C182.773 268.416 177.413 265.528 172.165 261.791L162.886 274.826ZM182.549 285.452C189.43 288.074 196.21 289.492 202.828 289.492V273.492C198.509 273.492 193.668 272.567 188.244 270.501L182.549 285.452ZM202.828 289.492C209.634 289.492 216.103 289.028 222.219 288.079L219.765 272.268C214.554 273.077 208.912 273.492 202.828 273.492V289.492ZM222.351 288.058C228.644 286.973 234.376 285.195 239.431 282.608L232.143 268.364C228.8 270.075 224.669 271.422 219.633 272.29L222.351 288.058ZM239.431 282.608C244.703 279.911 249.071 276.209 252.258 271.428L238.945 262.553C237.445 264.803 235.27 266.765 232.143 268.364L239.431 282.608ZM252.23 271.469C255.754 266.255 257.264 260.108 257.264 253.514H241.264C241.264 257.661 240.332 260.499 238.973 262.511L252.23 271.469ZM257.264 253.514C257.264 248.177 256.044 243.115 253.239 238.686L239.722 247.247C240.628 248.678 241.264 250.647 241.264 253.514H257.264ZM253.239 238.686C250.764 234.778 247.53 231.506 243.643 228.873L234.669 242.119C236.837 243.588 238.486 245.296 239.722 247.247L253.239 238.686ZM243.887 229.045C240.32 226.429 236.311 224.298 231.921 222.609L226.177 237.543C229.404 238.784 232.133 240.266 234.425 241.947L243.887 229.045ZM231.921 222.609C227.79 221.021 223.558 219.699 219.226 218.642L215.434 234.186C219.11 235.083 222.69 236.202 226.177 237.543L231.921 222.609ZM219.451 218.7C215.382 217.581 211.354 216.612 207.365 215.794L204.15 231.468C207.779 232.212 211.465 233.098 215.209 234.128L219.451 218.7ZM207.557 215.836C203.873 214.986 200.676 214.15 197.949 213.332L193.352 228.657C196.484 229.597 200.026 230.518 203.959 231.426L207.557 215.836ZM197.865 213.307C192.126 211.653 186.141 209.901 179.91 208.052L175.356 223.39C181.625 225.251 187.651 227.015 193.435 228.681L197.865 213.307ZM180.019 208.085C173.973 206.196 168.023 204.07 162.168 201.709L156.184 216.548C162.438 219.07 168.793 221.34 175.247 223.357L180.019 208.085ZM162.168 201.709C156.437 199.399 151.003 196.772 145.86 193.833L137.922 207.725C143.716 211.036 149.805 213.976 156.184 216.548L162.168 201.709ZM146.007 193.919C141.216 191.045 137.049 187.727 133.468 183.976L121.895 195.024C126.517 199.866 131.823 204.068 137.775 207.639L146.007 193.919ZM133.53 184.041C130.072 180.337 127.301 176.087 125.214 171.245L110.521 177.579C113.316 184.065 117.088 189.874 121.833 194.959L133.53 184.041ZM125.233 171.291C123.28 166.682 122.205 161.182 122.205 154.637H106.205C106.205 162.935 107.571 170.618 110.501 177.533L125.233 171.291ZM122.205 154.637C122.205 146.377 123.206 139.351 125.06 133.451L109.796 128.654C107.353 136.427 106.205 145.123 106.205 154.637H122.205ZM125.038 133.518C127.029 127.372 129.737 122.234 133.085 117.988L120.521 108.082C115.86 113.992 112.318 120.866 109.817 128.587L125.038 133.518ZM133.085 117.988C136.52 113.631 140.566 110.003 145.252 107.075L136.772 93.507C130.52 97.4145 125.093 102.283 120.521 108.082L133.085 117.988ZM145.338 107.02C150.173 103.912 155.524 101.424 161.422 99.5752L156.637 84.3076C149.449 86.5604 142.788 89.6389 136.686 93.5616L145.338 107.02ZM161.525 99.5421C167.532 97.5696 173.946 96.1638 180.783 95.3434L178.877 79.4574C171.065 80.3948 163.612 82.0163 156.534 84.3407L161.525 99.5421ZM180.874 95.332C187.939 94.4024 195.159 93.9355 202.535 93.9355V77.9355C194.482 77.9355 186.565 78.4453 178.786 79.4688L180.874 95.332ZM202.535 93.9355C212.598 93.9355 221.562 94.8682 229.473 96.6663L233.019 81.0642C223.743 78.956 213.566 77.9355 202.535 77.9355V93.9355ZM229.492 96.6706C237.621 98.4973 245.023 101.08 251.73 104.389L258.809 90.0404C250.868 86.1228 242.254 83.1394 233 81.0599L229.492 96.6706ZM251.73 104.389C258.5 107.729 264.649 111.728 270.197 116.381L280.479 104.122C273.918 98.6196 266.688 93.9272 258.809 90.0404L251.73 104.389ZM270.304 116.47C276.088 121.152 281.519 126.396 286.597 132.212L298.65 121.69C292.985 115.202 286.893 109.313 280.371 104.034L270.304 116.47ZM286.925 121.336L257.042 151.658L268.438 162.889L298.321 132.567L286.925 121.336ZM270.33 154.744C267.732 146.952 264.08 139.843 259.352 133.466L246.499 142.995C250.17 147.946 253.06 153.532 255.151 159.803L270.33 154.744ZM259.405 133.538C254.906 127.325 249.812 121.943 244.109 117.446L234.203 130.011C238.656 133.522 242.743 137.808 246.446 142.923L259.405 133.538ZM244.183 117.505C238.519 112.93 232.481 109.365 226.07 106.89L220.309 121.817C225.031 123.639 229.638 126.324 234.13 129.952L244.183 117.505ZM226.183 106.935C219.815 104.365 213.428 102.984 207.076 102.984V118.984C211.076 118.984 215.431 119.85 220.196 121.772L226.183 106.935ZM207.076 102.984C199.958 102.984 193.295 103.5 187.113 104.566L189.832 120.333C194.978 119.446 200.718 118.984 207.076 118.984V102.984ZM187.246 104.544C180.912 105.527 175.151 107.264 170.112 109.904L177.536 124.077C180.7 122.42 184.705 121.13 189.699 120.355L187.246 104.544ZM170.177 109.87C164.958 112.543 160.712 116.344 157.655 121.263L171.244 129.71C172.678 127.402 174.683 125.539 177.471 124.111L170.177 109.87ZM157.708 121.179C154.448 126.281 153.08 132.271 153.08 138.67H169.08C169.08 134.522 169.958 131.722 171.191 129.793L157.708 121.179ZM153.08 138.67C153.08 143.914 154.12 148.912 156.61 153.307L170.53 145.419C169.701 143.955 169.08 141.824 169.08 138.67H153.08ZM156.61 153.307C158.822 157.21 161.76 160.532 165.362 163.234L174.962 150.434C173.096 149.034 171.639 147.375 170.53 145.419L156.61 153.307ZM165.47 163.314C168.897 165.795 172.681 167.822 176.784 169.417L182.583 154.505C179.654 153.366 177.091 151.974 174.854 150.354L165.47 163.314ZM176.966 169.485C180.712 170.838 184.553 172.031 188.487 173.067L192.559 157.593C189.072 156.676 185.687 155.623 182.401 154.437L176.966 169.485ZM188.536 173.079C192.437 174.08 196.247 174.982 199.966 175.786L203.347 160.147C199.839 159.389 196.227 158.534 192.51 157.581L188.536 173.079ZM200.207 175.834C203.704 176.479 206.807 177.202 209.533 177.993L213.994 162.628C210.666 161.661 207.03 160.822 203.106 160.099L200.207 175.834ZM209.583 178.008C215.43 179.664 221.572 181.419 228.008 183.272L232.434 167.896C225.979 166.038 219.816 164.277 213.944 162.614L209.583 178.008ZM228.008 183.272C234.181 185.049 240.262 187.154 246.253 189.588L252.275 174.764C245.765 172.12 239.151 169.83 232.434 167.896L228.008 183.272ZM246.353 189.627C252.253 191.932 257.86 194.599 263.179 197.625L271.091 183.719C265.081 180.299 258.774 177.302 252.174 174.724L246.353 189.627ZM263.179 197.625C268.201 200.483 272.56 203.869 276.295 207.774L287.857 196.714C282.999 191.635 277.396 187.306 271.091 183.719L263.179 197.625ZM276.356 207.837C279.944 211.506 282.824 215.807 284.99 220.806L299.671 214.444C296.758 207.724 292.802 201.771 287.796 196.651L276.356 207.837ZM285.009 220.851C287.022 225.419 288.139 230.926 288.139 237.547H304.139C304.139 229.129 302.716 221.355 299.651 214.399L285.009 220.851Z" fill="#F5F5F5" mask="url(#path-2-outside-1_27_54)"/>
</g>
<defs>
<filter id="filter0_di_27_54" x="-21" y="0" width="429" height="408" filterUnits="userSpaceOnUse" color-interpolation-filters="sRGB">
<feFlood flood-opacity="0" result="BackgroundImageFix"/>
<feColorMatrix in="SourceAlpha" type="matrix" values="0 0 0 0 0 0 0 0 0 0 0 0 0 0 0 0 0 0 127 0" result="hardAlpha"/>
<feOffset dy="4"/>
<feGaussianBlur stdDeviation="2"/>
<feComposite in2="hardAlpha" operator="out"/>
<feColorMatrix type="matrix" values="0 0 0 0 0 0 0 0 0 0 0 0 0 0 0 0 0 0 0.25 0"/>
<feBlend mode="normal" in2="BackgroundImageFix" result="effect1_dropShadow_27_54"/>
<feBlend mode="normal" in="SourceGraphic" in2="effect1_dropShadow_27_54" result="shape"/>
<feColorMatrix in="SourceAlpha" type="matrix" values="0 0 0 0 0 0 0 0 0 0 0 0 0 0 0 0 0 0 127 0" result="hardAlpha"/>
<feOffset dx="-25" dy="1"/>
<feGaussianBlur stdDeviation="25"/>
<feComposite in2="hardAlpha" operator="arithmetic" k2="-1" k3="1"/>
<feColorMatrix type="matrix" values="0 0 0 0 0 0 0 0 0 0 0 0 0 0 0 0 0 0 0.25 0"/>
<feBlend mode="normal" in2="shape" result="effect2_innerShadow_27_54"/>
</filter>
<filter id="filter1_d_27_54" x="110.689" y="85.9355" width="207.449" height="237.312" filterUnits="userSpaceOnUse" color-interpolation-filters="sRGB">
<feFlood flood-opacity="0" result="BackgroundImageFix"/>
<feColorMatrix in="SourceAlpha" type="matrix" values="0 0 0 0 0 0 0 0 0 0 0 0 0 0 0 0 0 0 127 0" result="hardAlpha"/>
<feOffset dx="18" dy="13"/>
<feGaussianBlur stdDeviation="2"/>
<feComposite in2="hardAlpha" operator="out"/>
<feColorMatrix type="matrix" values="0 0 0 0 0 0 0 0 0 0 0 0 0 0 0 0 0 0 0.25 0"/>
<feBlend mode="normal" in2="BackgroundImageFix" result="effect1_dropShadow_27_54"/>
<feBlend mode="normal" in="SourceGraphic" in2="effect1_dropShadow_27_54" result="shape"/>
</filter>
</defs>
</svg>
