<svg width="500" height="500" viewBox="0 0 500 500" fill="none" xmlns="http://www.w3.org/2000/svg">
<circle cx="250" cy="250" r="250" fill="#D9D9D9" fill-opacity="0.3"/>
<g filter="url(#filter0_f_72_538)">
<path d="M247.77 350.8C241.97 350.8 235.97 350.6 229.77 350.2C223.77 350 217.57 349.6 211.17 349C204.97 348.2 199.07 347.4 193.47 346.6C187.87 345.6 182.77 344.5 178.17 343.3V308.2C184.17 308.8 190.97 309.3 198.57 309.7C206.17 310.1 214.07 310.4 222.27 310.6C230.47 310.8 238.27 310.9 245.67 310.9C253.27 310.9 259.77 310.3 265.17 309.1C270.77 307.7 275.07 305.4 278.07 302.2C281.07 298.8 282.57 294.2 282.57 288.4V280.3C282.57 273.7 280.57 268.7 276.57 265.3C272.77 261.7 267.27 259.9 260.07 259.9H241.17C219.97 259.9 203.67 255.3 192.27 246.1C181.07 236.7 175.47 220.8 175.47 198.4V187.6C175.47 166 181.67 150.2 194.07 140.2C206.47 130.2 224.17 125.2 247.17 125.2C255.37 125.2 263.47 125.6 271.47 126.4C279.67 127.2 287.47 128.2 294.87 129.4C302.47 130.4 308.97 131.5 314.37 132.7V167.8C305.17 167.2 294.87 166.6 283.47 166C272.27 165.4 261.87 165.1 252.27 165.1C245.47 165.1 239.37 165.8 233.97 167.2C228.77 168.4 224.77 170.8 221.97 174.4C219.17 178 217.77 183.1 217.77 189.7V195.7C217.77 203.5 219.97 209.1 224.37 212.5C228.77 215.9 235.27 217.6 243.87 217.6H265.77C279.17 217.6 290.17 220.1 298.77 225.1C307.57 229.9 314.07 236.6 318.27 245.2C322.67 253.8 324.87 263.6 324.87 274.6V287.2C324.87 304.6 321.57 317.9 314.97 327.1C308.57 336.3 299.57 342.6 287.97 346C276.57 349.2 263.17 350.8 247.77 350.8Z" fill="white"/>
</g>
<path d="M247.77 350.8C241.97 350.8 235.97 350.6 229.77 350.2C223.77 350 217.57 349.6 211.17 349C204.97 348.2 199.07 347.4 193.47 346.6C187.87 345.6 182.77 344.5 178.17 343.3V308.2C184.17 308.8 190.97 309.3 198.57 309.7C206.17 310.1 214.07 310.4 222.27 310.6C230.47 310.8 238.27 310.9 245.67 310.9C253.27 310.9 259.77 310.3 265.17 309.1C270.77 307.7 275.07 305.4 278.07 302.2C281.07 298.8 282.57 294.2 282.57 288.4V280.3C282.57 273.7 280.57 268.7 276.57 265.3C272.77 261.7 267.27 259.9 260.07 259.9H241.17C219.97 259.9 203.67 255.3 192.27 246.1C181.07 236.7 175.47 220.8 175.47 198.4V187.6C175.47 166 181.67 150.2 194.07 140.2C206.47 130.2 224.17 125.2 247.17 125.2C255.37 125.2 263.47 125.6 271.47 126.4C279.67 127.2 287.47 128.2 294.87 129.4C302.47 130.4 308.97 131.5 314.37 132.7V167.8C305.17 167.2 294.87 166.6 283.47 166C272.27 165.4 261.87 165.1 252.27 165.1C245.47 165.1 239.37 165.8 233.97 167.2C228.77 168.4 224.77 170.8 221.97 174.4C219.17 178 217.77 183.1 217.77 189.7V195.7C217.77 203.5 219.97 209.1 224.37 212.5C228.77 215.9 235.27 217.6 243.87 217.6H265.77C279.17 217.6 290.17 220.1 298.77 225.1C307.57 229.9 314.07 236.6 318.27 245.2C322.67 253.8 324.87 263.6 324.87 274.6V287.2C324.87 304.6 321.57 317.9 314.97 327.1C308.57 336.3 299.57 342.6 287.97 346C276.57 349.2 263.17 350.8 247.77 350.8Z" fill="white"/>
<defs>
<filter id="filter0_f_72_538" x="165.47" y="115.2" width="169.4" height="245.6" filterUnits="userSpaceOnUse" color-interpolation-filters="sRGB">
<feFlood flood-opacity="0" result="BackgroundImageFix"/>
<feBlend mode="normal" in="SourceGraphic" in2="BackgroundImageFix" result="shape"/>
<feGaussianBlur stdDeviation="5" result="effect1_foregroundBlur_72_538"/>
</filter>
</defs>
</svg>
