<svg width="36" height="57" viewBox="0 0 36 57" fill="none" xmlns="http://www.w3.org/2000/svg">
<mask id="path-1-outside-1_154_485" maskUnits="userSpaceOnUse" x="-3" y="-3" width="42" height="63" fill="black">
<rect fill="white" x="-3" y="-3" width="42" height="63"/>
<path d="M17.7703 56.45C16.6703 56.45 15.3453 56.4 13.7953 56.3C12.2953 56.25 10.7453 56.15 9.14531 56C7.54531 55.9 6.02031 55.775 4.57031 55.625C3.17031 55.475 1.99531 55.3 1.04531 55.1V50.525C2.29531 50.625 3.82031 50.725 5.62031 50.825C7.42031 50.925 9.34531 51 11.3953 51.05C13.4953 51.1 15.5453 51.125 17.5453 51.125C19.7953 51.125 21.8203 50.9 23.6203 50.45C25.4203 50 26.8453 49.175 27.8953 47.975C28.9953 46.775 29.5453 45.05 29.5453 42.8V39.05C29.5453 36.5 28.8953 34.575 27.5953 33.275C26.2953 31.925 24.1953 31.25 21.2953 31.25H15.3703C10.8203 31.25 7.24531 30.25 4.64531 28.25C2.09531 26.25 0.820313 22.8 0.820313 17.9V14.75C0.820313 9.55 2.22031 5.85 5.02031 3.65C7.82031 1.45 11.7703 0.349997 16.8703 0.349997C18.4703 0.349997 20.2703 0.449997 22.2703 0.649997C24.2703 0.799998 26.1953 0.999999 28.0453 1.25C29.9453 1.45 31.5203 1.675 32.7703 1.925V6.5C30.5703 6.3 28.0703 6.125 25.2703 5.975C22.5203 5.825 19.9203 5.75 17.4703 5.75C15.2203 5.75 13.2703 6.025 11.6203 6.575C9.97031 7.075 8.69531 8 7.79531 9.35C6.94531 10.65 6.52031 12.525 6.52031 14.975V17.525C6.52031 20.575 7.32031 22.675 8.92031 23.825C10.5203 24.975 12.7453 25.55 15.5953 25.55H21.9703C25.0203 25.55 27.5203 26.1 29.4703 27.2C31.4203 28.3 32.8703 29.825 33.8203 31.775C34.7703 33.675 35.2453 35.875 35.2453 38.375V42.65C35.2453 46.35 34.4453 49.2 32.8453 51.2C31.2953 53.2 29.1953 54.575 26.5453 55.325C23.9453 56.075 21.0203 56.45 17.7703 56.45Z"/>
</mask>
<path d="M13.7953 56.3L13.9885 53.3062L13.9419 53.3032L13.8953 53.3017L13.7953 56.3ZM9.14531 56L9.42533 53.0131L9.37895 53.0087L9.33245 53.0058L9.14531 56ZM4.57031 55.625L4.25071 58.6079L4.26162 58.6091L4.57031 55.625ZM1.04531 55.1H-1.95469V57.5342L0.427281 58.0356L1.04531 55.1ZM1.04531 50.525L1.28455 47.5346L-1.95469 47.2754V50.525H1.04531ZM5.62031 50.825L5.78672 47.8296L5.78672 47.8296L5.62031 50.825ZM11.3953 51.05L11.3222 54.0491L11.3239 54.0492L11.3953 51.05ZM23.6203 50.45L24.3479 53.3604L24.3479 53.3604L23.6203 50.45ZM27.8953 47.975L25.6839 45.9478L25.6604 45.9734L25.6376 45.9995L27.8953 47.975ZM27.5953 33.275L25.4344 35.3559L25.454 35.3763L25.474 35.3963L27.5953 33.275ZM4.64531 28.25L2.79389 30.6106L2.805 30.6193L2.81618 30.6279L4.64531 28.25ZM5.02031 3.65L6.87378 6.00895L6.87378 6.00895L5.02031 3.65ZM22.2703 0.649997L21.9718 3.63511L22.0088 3.63881L22.0459 3.6416L22.2703 0.649997ZM28.0453 1.25L27.6436 4.22298L27.6873 4.22889L27.7313 4.23351L28.0453 1.25ZM32.7703 1.925H35.7703V-0.534413L33.3587 -1.01674L32.7703 1.925ZM32.7703 6.5L32.4987 9.48768L35.7703 9.7851V6.5H32.7703ZM25.2703 5.975L25.1069 8.97054L25.1098 8.9707L25.2703 5.975ZM11.6203 6.575L12.4903 9.44607L12.5298 9.4341L12.569 9.42105L11.6203 6.575ZM7.79531 9.35L5.29916 7.6859L5.29173 7.69704L5.2844 7.70825L7.79531 9.35ZM8.92031 23.825L10.6712 21.389L10.6712 21.389L8.92031 23.825ZM29.4703 27.2L27.9964 29.8129L27.9964 29.8129L29.4703 27.2ZM33.8203 31.775L31.1233 33.0889L31.1301 33.1028L31.137 33.1166L33.8203 31.775ZM32.8453 51.2L30.5027 49.3259L30.4882 49.344L30.4741 49.3623L32.8453 51.2ZM26.5453 55.325L25.7283 52.4384L25.7211 52.4404L25.7138 52.4425L26.5453 55.325ZM17.7703 53.45C16.7549 53.45 15.498 53.4036 13.9885 53.3062L13.6022 59.2938C15.1926 59.3964 16.5857 59.45 17.7703 59.45V53.45ZM13.8953 53.3017C12.4594 53.2538 10.9696 53.1579 9.42533 53.0131L8.86529 58.9869C10.521 59.1421 12.1312 59.2462 13.6954 59.2983L13.8953 53.3017ZM9.33245 53.0058C7.76909 52.9081 6.28481 52.7864 4.87901 52.6409L4.26162 58.6091C5.75582 58.7636 7.32154 58.8919 8.95818 58.9942L9.33245 53.0058ZM4.88991 52.6421C3.54983 52.4985 2.48174 52.3366 1.66334 52.1644L0.427281 58.0356C1.50888 58.2634 2.7908 58.4515 4.25071 58.6079L4.88991 52.6421ZM4.04531 55.1V50.525H-1.95469V55.1H4.04531ZM0.806076 53.5154C2.08826 53.618 3.63912 53.7196 5.4539 53.8204L5.78672 47.8296C4.00151 47.7304 2.50237 47.632 1.28455 47.5346L0.806076 53.5154ZM5.4539 53.8204C7.28884 53.9223 9.24519 53.9985 11.3222 54.0491L11.4685 48.0509C9.44544 48.0015 7.55179 47.9277 5.78672 47.8296L5.4539 53.8204ZM11.3239 54.0492C13.4465 54.0997 15.5204 54.125 17.5453 54.125V48.125C15.5703 48.125 13.5441 48.1003 11.4667 48.0508L11.3239 54.0492ZM17.5453 54.125C19.9906 54.125 22.2659 53.8809 24.3479 53.3604L22.8927 47.5396C21.3747 47.9191 19.6 48.125 17.5453 48.125V54.125ZM24.3479 53.3604C26.6414 52.787 28.6374 51.6827 30.153 49.9505L25.6376 45.9995C25.0533 46.6673 24.1992 47.213 22.8927 47.5396L24.3479 53.3604ZM30.1068 50.0022C31.8801 48.0676 32.5453 45.5118 32.5453 42.8H26.5453C26.5453 44.5882 26.1105 45.4824 25.6839 45.9478L30.1068 50.0022ZM32.5453 42.8V39.05H26.5453V42.8H32.5453ZM32.5453 39.05C32.5453 36.018 31.7678 33.2048 29.7166 31.1537L25.474 35.3963C26.0229 35.9452 26.5453 36.982 26.5453 39.05H32.5453ZM29.7563 31.1941C27.6458 29.0024 24.5726 28.25 21.2953 28.25V34.25C23.818 34.25 24.9448 34.8476 25.4344 35.3559L29.7563 31.1941ZM21.2953 28.25H15.3703V34.25H21.2953V28.25ZM15.3703 28.25C11.2304 28.25 8.38054 27.3384 6.47445 25.8721L2.81618 30.6279C6.11009 33.1616 10.4102 34.25 15.3703 34.25V28.25ZM6.49673 25.8894C4.98213 24.7015 3.82031 22.3621 3.82031 17.9H-2.17969C-2.17969 23.2379 -0.791503 27.7985 2.79389 30.6106L6.49673 25.8894ZM3.82031 17.9V14.75H-2.17969V17.9H3.82031ZM3.82031 14.75C3.82031 10.0302 5.08478 7.41459 6.87378 6.00895L3.16685 1.29104C-0.644156 4.2854 -2.17969 9.06977 -2.17969 14.75H3.82031ZM6.87378 6.00895C8.95918 4.37042 12.1598 3.35 16.8703 3.35V-2.65C11.3808 -2.65 6.68145 -1.47043 3.16685 1.29104L6.87378 6.00895ZM16.8703 3.35C18.3492 3.35 20.0471 3.44264 21.9718 3.63511L22.5688 -2.33511C20.4935 -2.54265 18.5914 -2.65 16.8703 -2.65V3.35ZM22.0459 3.6416C23.991 3.78747 25.8566 3.9815 27.6436 4.22298L28.4471 -1.72298C26.534 -1.9815 24.5497 -2.18748 22.4947 -2.3416L22.0459 3.6416ZM27.7313 4.23351C29.5797 4.42809 31.0554 4.64142 32.182 4.86674L33.3587 -1.01674C31.9853 -1.29142 30.3109 -1.52809 28.3594 -1.73352L27.7313 4.23351ZM29.7703 1.925V6.5H35.7703V1.925H29.7703ZM33.0419 3.51232C30.7967 3.3082 28.2586 3.13078 25.4308 2.97929L25.1098 8.9707C27.8821 9.11921 30.344 9.29179 32.4987 9.48768L33.0419 3.51232ZM25.4337 2.97945C22.6358 2.82684 19.981 2.75 17.4703 2.75V8.75C19.8596 8.75 22.4048 8.82316 25.1069 8.97054L25.4337 2.97945ZM17.4703 2.75C14.9874 2.75 12.7023 3.05207 10.6716 3.72895L12.569 9.42105C13.8384 8.99793 15.4532 8.75 17.4703 8.75V2.75ZM10.7503 3.70392C8.47967 4.39199 6.61019 5.71935 5.29916 7.6859L10.2915 11.0141C10.7804 10.2806 11.461 9.758 12.4903 9.44607L10.7503 3.70392ZM5.2844 7.70825C3.9802 9.70292 3.52031 12.2509 3.52031 14.975H9.52031C9.52031 12.7991 9.91043 11.5971 10.3062 10.9917L5.2844 7.70825ZM3.52031 14.975V17.525H9.52031V14.975H3.52031ZM3.52031 17.525C3.52031 20.9953 4.42805 24.2907 7.16941 26.261L10.6712 21.389C10.2126 21.0593 9.52031 20.1547 9.52031 17.525H3.52031ZM7.1694 26.261C9.46155 27.9085 12.3861 28.55 15.5953 28.55V22.55C13.1046 22.55 11.5791 22.0415 10.6712 21.389L7.1694 26.261ZM15.5953 28.55H21.9703V22.55H15.5953V28.55ZM21.9703 28.55C24.683 28.55 26.63 29.0422 27.9964 29.8129L30.9443 24.5871C28.4106 23.1578 25.3576 22.55 21.9703 22.55V28.55ZM27.9964 29.8129C29.4345 30.6242 30.4488 31.7043 31.1233 33.0889L36.5173 30.4611C35.2918 27.9457 33.4061 25.9758 30.9443 24.5871L27.9964 29.8129ZM31.137 33.1166C31.8449 34.5324 32.2453 36.2587 32.2453 38.375H38.2453C38.2453 35.4913 37.6957 32.8176 36.5036 30.4334L31.137 33.1166ZM32.2453 38.375V42.65H38.2453V38.375H32.2453ZM32.2453 42.65C32.2453 45.9632 31.5239 48.0495 30.5027 49.3259L35.1879 53.0741C37.3668 50.3505 38.2453 46.7368 38.2453 42.65H32.2453ZM30.4741 49.3623C29.352 50.8102 27.8191 51.8467 25.7283 52.4384L27.3623 58.2116C30.5715 57.3033 33.2387 55.5898 35.2166 53.0377L30.4741 49.3623ZM25.7138 52.4425C23.4319 53.1008 20.7935 53.45 17.7703 53.45V59.45C21.2471 59.45 24.4587 59.0492 27.3768 58.2075L25.7138 52.4425Z" fill="white" mask="url(#path-1-outside-1_154_485)"/>
</svg>
