<svg width="122" height="130" viewBox="0 0 122 130" fill="none" xmlns="http://www.w3.org/2000/svg">
<path fill-rule="evenodd" clip-rule="evenodd" d="M64.8865 37.232V51.9393C67.5953 47.2466 71.3302 43.4343 75.7254 40.8758C80.1205 38.3174 85.0251 37.1006 89.9585 37.3447C116.304 37.3447 122 56.0647 122 80.418V130H97.5991V86.0427C97.5991 75.556 95.7385 62.0707 81.3724 62.0707C67.441 62.0707 65.0619 73.4847 65.0619 85.2627V130H40.7372V37.232H64.8865ZM24.3962 13.9187C24.3932 16.666 23.6767 19.3512 22.3365 21.6377C20.9963 23.9241 19.092 25.7099 16.8624 26.7713C14.6338 27.8242 12.1799 28.0996 9.81311 27.5625C7.44632 27.0254 5.27363 25.7001 3.57155 23.7553C1.86627 21.8093 0.705314 19.3337 0.234664 16.6397C-0.235987 13.9458 0.00468729 11.1538 0.926417 8.6149C1.84815 6.076 3.40978 3.90353 5.41494 2.37067C7.4201 0.837818 9.77926 0.0130208 12.1958 0C13.8015 0.00113105 15.3913 0.3623 16.8741 1.06282C18.3568 1.76334 19.7034 2.78944 20.8368 4.08237C21.9701 5.37529 22.8678 6.90963 23.4786 8.5975C24.0894 10.2854 24.4012 12.0936 24.3962 13.9187Z" fill="#F7F7F7"/>
<path d="M24.4 37.8181H0V130H24.4V37.8181Z" fill="#F7F7F7"/>
</svg>
