<svg width="122" height="130" viewBox="0 0 122 130" fill="none" xmlns="http://www.w3.org/2000/svg">
<path d="M90.8703 65C90.8703 82.7074 77.5149 97 61.1142 97C44.7135 97 31.3582 82.7074 31.3582 65C31.3582 47.2926 44.7135 33 61.1142 33C77.5149 33 90.8703 47.2926 90.8703 65ZM61.1142 87.1667C72.5632 87.1667 81.7849 77.2078 81.7849 65C81.7849 52.792 72.5632 42.8333 61.1142 42.8333C49.665 42.8333 40.4435 52.792 40.4435 65C40.4435 77.2078 49.665 87.1667 61.1142 87.1667Z" fill="#F5F5F5" stroke="#F5F5F5"/>
<path d="M86.8276 32.4999C86.8276 29.7502 88.8944 27.5833 91.3703 27.5833C93.8461 27.5833 95.9129 29.7502 95.9129 32.4999C95.9129 35.2496 93.8461 37.4166 91.3703 37.4166C88.8944 37.4166 86.8276 35.2496 86.8276 32.4999Z" fill="#F5F5F5" stroke="#F5F5F5"/>
<path d="M95.7252 18.173L95.5236 18.5412L95.7251 18.173C94.0624 17.2629 91.724 16.5498 87.2684 16.1588C82.702 15.7581 76.804 15.7501 68.174 15.7501H54.0545C45.4247 15.7501 39.5262 15.7581 34.9599 16.1588C30.5047 16.5498 28.1663 17.2629 26.5035 18.173C22.6115 20.3031 19.4538 23.6983 17.4769 27.866C16.6356 29.6395 15.9737 32.1375 15.6103 36.9151L16.1042 36.9527L15.6103 36.9151C15.2377 41.8144 15.2302 48.145 15.2302 57.4167V72.5834C15.2302 81.8554 15.2377 88.1855 15.6103 93.085C15.9737 97.8628 16.6356 100.361 17.4769 102.134C19.4538 106.302 22.6116 109.697 26.5035 111.827C28.1662 112.737 30.5047 113.451 34.96 113.841C39.5262 114.242 45.4246 114.25 54.0545 114.25H68.174C76.804 114.25 82.702 114.242 87.2684 113.841C91.724 113.451 94.0624 112.737 95.7252 111.827C99.6168 109.697 102.774 106.302 104.751 102.134C105.593 100.361 106.255 97.8629 106.618 93.0849C106.991 88.1855 106.998 81.8554 106.998 72.5834V57.4167C106.998 48.145 106.991 41.8144 106.618 36.9151C106.255 32.1375 105.593 29.6394 104.751 27.866C102.774 23.6983 99.6169 20.3031 95.7252 18.173ZM99.8233 9.39763L100.063 8.95903L99.8233 9.39764C105.42 12.4607 109.977 17.3519 112.834 23.3763L113.286 23.1621L112.834 23.3764C114.445 26.7735 115.263 30.7176 115.673 36.1088C116.083 41.5048 116.084 48.3082 116.084 57.4167V72.5834C116.084 81.6919 116.083 88.4953 115.673 93.8914C115.263 99.2826 114.445 103.227 112.834 106.624L113.244 106.818L112.834 106.624C109.977 112.648 105.42 117.539 99.8233 120.602L100.063 121.041L99.8233 120.602C96.6727 122.327 93.0137 123.203 88.0024 123.643C82.984 124.083 76.6553 124.083 68.174 124.083H54.0545C45.5732 124.083 39.2444 124.083 34.2261 123.643C29.2147 123.203 25.5558 122.327 22.405 120.602L22.1649 121.041L22.4049 120.602C16.8085 117.54 12.2519 112.648 9.39427 106.624L8.94251 106.838L9.39426 106.624C7.78288 103.227 6.96564 99.2826 6.55558 93.8914C6.14514 88.4953 6.14481 81.6919 6.14481 72.5834V57.4167C6.14481 48.3082 6.14514 41.5048 6.55558 36.1088C6.96564 30.7175 7.78288 26.7734 9.39427 23.3764L8.94251 23.1621L9.39427 23.3764C12.2519 17.3519 16.8085 12.4607 22.405 9.39764L22.1715 8.97114L22.405 9.39764C25.5557 7.67317 29.2147 6.79743 34.2261 6.35762C39.2444 5.9172 45.5732 5.91675 54.0545 5.91675H68.174C76.6553 5.91675 82.984 5.9172 88.0024 6.35762C93.0137 6.79743 96.6727 7.67317 99.8233 9.39763Z" fill="#F5F5F5" stroke="#F5F5F5"/>
</svg>
