<svg width="100" height="100" viewBox="0 0 100 100" fill="none" xmlns="http://www.w3.org/2000/svg">
<path fill-rule="evenodd" clip-rule="evenodd" d="M0 27.7778C0 20.4107 2.92658 13.3453 8.13592 8.13592C13.3453 2.92658 20.4107 0 27.7778 0H72.2222C79.5893 0 86.6547 2.92658 91.8641 8.13592C97.0734 13.3453 100 20.4107 100 27.7778V72.2222C100 79.5893 97.0734 86.6547 91.8641 91.8641C86.6547 97.0734 79.5893 100 72.2222 100H27.7778C20.4107 100 13.3453 97.0734 8.13592 91.8641C2.92658 86.6547 0 79.5893 0 72.2222V27.7778ZM27.7778 11.1111C23.3575 11.1111 19.1183 12.8671 15.9927 15.9927C12.8671 19.1183 11.1111 23.3575 11.1111 27.7778V72.2222C11.1111 76.6425 12.8671 80.8817 15.9927 84.0073C19.1183 87.1329 23.3575 88.8889 27.7778 88.8889H72.2222C76.6425 88.8889 80.8817 87.1329 84.0073 84.0073C87.1329 80.8817 88.8889 76.6425 88.8889 72.2222V27.7778C88.8889 23.3575 87.1329 19.1183 84.0073 15.9927C80.8817 12.8671 76.6425 11.1111 72.2222 11.1111H27.7778ZM69.9833 23.4111C69.9833 21.9377 70.5686 20.5246 71.6105 19.4827C72.6524 18.4409 74.0655 17.8556 75.5389 17.8556H75.5944C77.0679 17.8556 78.4809 18.4409 79.5228 19.4827C80.5647 20.5246 81.15 21.9377 81.15 23.4111C81.15 24.8845 80.5647 26.2976 79.5228 27.3395C78.4809 28.3813 77.0679 28.9667 75.5944 28.9667H75.5389C74.0655 28.9667 72.6524 28.3813 71.6105 27.3395C70.5686 26.2976 69.9833 24.8845 69.9833 23.4111ZM50 33.3333C45.5797 33.3333 41.3405 35.0893 38.2149 38.2149C35.0893 41.3405 33.3333 45.5797 33.3333 50C33.3333 54.4203 35.0893 58.6595 38.2149 61.7851C41.3405 64.9107 45.5797 66.6667 50 66.6667C54.4203 66.6667 58.6595 64.9107 61.7851 61.7851C64.9107 58.6595 66.6667 54.4203 66.6667 50C66.6667 45.5797 64.9107 41.3405 61.7851 38.2149C58.6595 35.0893 54.4203 33.3333 50 33.3333ZM22.2222 50C22.2222 42.6329 25.1488 35.5675 30.3581 30.3581C35.5675 25.1488 42.6329 22.2222 50 22.2222C57.3671 22.2222 64.4325 25.1488 69.6419 30.3581C74.8512 35.5675 77.7778 42.6329 77.7778 50C77.7778 57.3671 74.8512 64.4325 69.6419 69.6419C64.4325 74.8512 57.3671 77.7778 50 77.7778C42.6329 77.7778 35.5675 74.8512 30.3581 69.6419C25.1488 64.4325 22.2222 57.3671 22.2222 50Z" fill="#D32F2F"/>
</svg>
