<svg width="122" height="130" viewBox="0 0 122 130" fill="none" xmlns="http://www.w3.org/2000/svg">
<path d="M90.8702 65C90.8702 82.7074 77.5149 97 61.1142 97C44.7135 97 31.3582 82.7074 31.3582 65C31.3582 47.2926 44.7135 33 61.1142 33C77.5149 33 90.8702 47.2926 90.8702 65ZM61.1142 87.1667C72.5632 87.1667 81.7849 77.2078 81.7849 65C81.7849 52.792 72.5632 42.8333 61.1142 42.8333C49.665 42.8333 40.4435 52.792 40.4435 65C40.4435 77.2078 49.665 87.1667 61.1142 87.1667Z" fill="#F9F9F9" stroke="#F9F9F9"/>
<path d="M86.8276 32.4999C86.8276 29.7502 88.8944 27.5833 91.3703 27.5833C93.8461 27.5833 95.9129 29.7502 95.9129 32.4999C95.9129 35.2496 93.8461 37.4166 91.3703 37.4166C88.8944 37.4166 86.8276 35.2496 86.8276 32.4999Z" fill="#F9F9F9" stroke="#F9F9F9"/>
<path d="M95.7251 18.173L95.5236 18.5412L95.7251 18.173C94.0623 17.2629 91.7239 16.5498 87.2684 16.1588C82.702 15.7581 76.8039 15.7501 68.1739 15.7501H54.0544C45.4246 15.7501 39.5262 15.7581 34.9599 16.1588C30.5046 16.5498 28.1662 17.2629 26.5035 18.173C22.6115 20.3031 19.4538 23.6983 17.4768 27.866C16.6356 29.6395 15.9737 32.1375 15.6103 36.9151L16.1042 36.9527L15.6103 36.9151C15.2376 41.8144 15.2301 48.145 15.2301 57.4167V72.5834C15.2301 81.8554 15.2376 88.1855 15.6103 93.085C15.9737 97.8628 16.6356 100.361 17.4768 102.134C19.4538 106.302 22.6115 109.697 26.5035 111.827C28.1662 112.737 30.5046 113.451 34.9599 113.841C39.5262 114.242 45.4246 114.25 54.0544 114.25H68.1739C76.804 114.25 82.702 114.242 87.2683 113.841C91.724 113.451 94.0624 112.737 95.7251 111.827C99.6168 109.697 102.774 106.302 104.751 102.134C105.593 100.361 106.255 97.8629 106.618 93.0849C106.991 88.1855 106.998 81.8554 106.998 72.5834V57.4167C106.998 48.145 106.991 41.8144 106.618 36.9151C106.255 32.1375 105.593 29.6394 104.751 27.866C102.774 23.6983 99.6168 20.3031 95.7251 18.173ZM99.8232 9.39763L100.063 8.95903L99.8232 9.39764C105.42 12.4607 109.976 17.3519 112.834 23.3763L113.286 23.1621L112.834 23.3764C114.445 26.7735 115.263 30.7176 115.673 36.1088C116.083 41.5048 116.084 48.3082 116.084 57.4167V72.5834C116.084 81.6919 116.083 88.4953 115.673 93.8914C115.263 99.2826 114.445 103.227 112.834 106.624L113.244 106.818L112.834 106.624C109.976 112.648 105.42 117.539 99.8233 120.602L100.063 121.041L99.8232 120.602C96.6726 122.327 93.0137 123.203 88.0023 123.643C82.984 124.083 76.6552 124.083 68.1739 124.083H54.0544C45.5731 124.083 39.2444 124.083 34.2261 123.643C29.2147 123.203 25.5557 122.327 22.4049 120.602L22.1649 121.041L22.4049 120.602C16.8084 117.54 12.2519 112.648 9.39424 106.624L8.94248 106.838L9.39423 106.624C7.78285 103.227 6.96561 99.2826 6.55555 93.8914C6.14511 88.4953 6.14478 81.6919 6.14478 72.5834V57.4167C6.14478 48.3082 6.14511 41.5048 6.55555 36.1088C6.96561 30.7175 7.78285 26.7734 9.39424 23.3764L8.94248 23.1621L9.39424 23.3764C12.2519 17.3519 16.8084 12.4607 22.4049 9.39764L22.1715 8.97114L22.4049 9.39764C25.5557 7.67317 29.2147 6.79743 34.2261 6.35762C39.2444 5.9172 45.5731 5.91675 54.0544 5.91675H68.1739C76.6552 5.91675 82.984 5.9172 88.0023 6.35762C93.0137 6.79743 96.6726 7.67317 99.8232 9.39763Z" fill="#F9F9F9" stroke="#F9F9F9"/>
</svg>
