<svg width="122" height="130" viewBox="0 0 122 130" fill="none" xmlns="http://www.w3.org/2000/svg">
<path d="M25.9177 54.1667C25.9177 51.417 27.9846 49.25 30.4603 49.25H35.503C37.9787 49.25 40.0457 51.4169 40.0457 54.1667V97.5C40.0457 100.25 37.9787 102.417 35.503 102.417H30.4603C27.9846 102.417 25.9177 100.25 25.9177 97.5V54.1667Z" fill="#F9F9F9" stroke="#F9F9F9"/>
<path d="M65.2591 56.875L66.2343 57.0228C66.2365 57.0236 66.2365 57.0236 66.2365 57.0236L66.2366 57.0232L66.2371 57.0216L66.2414 57.0085C66.2455 56.9961 66.2521 56.9763 66.2615 56.9496C66.2803 56.8963 66.3099 56.8155 66.3515 56.7112C66.4348 56.5024 66.566 56.2 66.7547 55.8352C67.1325 55.1047 67.7381 54.1288 68.6464 53.1532C70.4534 51.2122 73.4767 49.25 78.3657 49.25C83.3242 49.25 87.6092 50.5816 90.6466 53.1917C93.673 55.7925 95.5151 59.7086 95.5151 65V97.5C95.5151 100.25 93.4483 102.417 90.9724 102.417H85.9298C83.4537 102.417 81.3871 100.252 81.3871 97.5022V70.4167C81.3871 67.5868 80.3913 65.7074 78.7888 64.7033C77.2125 63.7155 75.1645 63.6492 73.1934 64.1786C71.2149 64.7099 69.2436 65.8572 67.7617 67.4048C66.279 68.9532 65.2591 70.9331 65.2591 73.125V97.5C65.2591 100.25 63.1922 102.417 60.7164 102.417H55.6737C53.1979 102.417 51.131 100.25 51.131 97.5V54.1667C51.131 51.417 53.1979 49.25 55.6737 49.25H60.7164C63.1922 49.25 65.2591 51.4169 65.2591 54.1667V56.875Z" fill="#F9F9F9" stroke="#F9F9F9"/>
<path d="M40.0453 35.2085C40.0453 39.454 36.8496 42.8335 32.9813 42.8335C29.113 42.8335 25.9173 39.454 25.9173 35.2085C25.9173 30.963 29.113 27.5835 32.9813 27.5835C36.8496 27.5835 40.0453 30.963 40.0453 35.2085Z" fill="#F9F9F9" stroke="#F9F9F9"/>
<path d="M101.058 5.91675C109.104 5.91675 115.686 12.934 115.686 21.6667V108.333C115.686 117.066 109.104 124.083 101.058 124.083H20.375C12.3293 124.083 5.74696 117.066 5.74696 108.333V21.6667C5.74696 12.934 12.3293 5.91675 20.375 5.91675H101.058ZM106.6 21.6667C106.6 18.4334 104.152 15.7501 101.058 15.7501H20.375C17.2808 15.7501 14.8323 18.4334 14.8323 21.6667V108.333C14.8323 111.567 17.2808 114.25 20.375 114.25H101.058C104.152 114.25 106.6 111.567 106.6 108.333V21.6667Z" fill="#F9F9F9" stroke="#F9F9F9"/>
</svg>
