<svg width="100" height="100" viewBox="0 0 100 100" fill="none" xmlns="http://www.w3.org/2000/svg">
<path fill-rule="evenodd" clip-rule="evenodd" d="M53.1857 28.64V39.9533C55.406 36.3436 58.4674 33.411 62.07 31.4429C65.6726 29.4749 69.6927 28.5389 73.7365 28.7267C95.3311 28.7267 100 43.1267 100 61.86V100H79.9992V66.1867C79.9992 58.12 78.4742 47.7467 66.6987 47.7467C55.2795 47.7467 53.3294 56.5267 53.3294 65.5867V100H33.3912V28.64H53.1857ZM19.9969 10.7067C19.9945 12.82 19.4071 14.8856 18.3086 16.6444C17.2101 18.4031 15.6492 19.7769 13.8217 20.5933C11.9949 21.4032 9.98353 21.6151 8.04354 21.2019C6.10354 20.7888 4.32265 19.7693 2.9275 18.2733C1.52973 16.7764 0.578127 14.872 0.192347 12.7998C-0.193432 10.7275 0.00384204 8.57984 0.759358 6.62684C1.51487 4.67384 2.7949 3.00271 4.43848 1.82359C6.08205 0.644475 8.01579 0.010016 9.99652 0C11.3127 0.000870036 12.6158 0.278692 13.8312 0.817553C15.0466 1.35641 16.1504 2.14572 17.0793 3.14028C18.0083 4.13484 18.7441 5.3151 19.2448 6.61346C19.7454 7.91182 20.001 9.30278 19.9969 10.7067Z" fill="#F7F7F7"/>
<path d="M20 29.0909H0V100H20V29.0909Z" fill="#F7F7F7"/>
</svg>
