<svg width="304" height="151" viewBox="0 0 304 151" fill="none" xmlns="http://www.w3.org/2000/svg">
<mask id="path-1-outside-1_21_44" maskUnits="userSpaceOnUse" x="5" y="18" width="100" height="111" fill="black">
<rect fill="white" x="5" y="18" width="100" height="111"/>
<path d="M95.3125 91.5C95.3125 95.375 94.8125 98.7917 93.8125 101.75C92.8542 104.708 91.4792 107.271 89.6875 109.438C87.9375 111.604 85.8542 113.417 83.4375 114.875C81.0208 116.333 78.375 117.5 75.5 118.375C72.6667 119.25 69.6458 119.875 66.4375 120.25C63.2708 120.625 60.0417 120.812 56.75 120.812C52.4167 120.812 48.4167 120.479 44.75 119.812C41.0833 119.188 37.625 118.188 34.375 116.812C31.1667 115.396 28.0625 113.583 25.0625 111.375C22.1042 109.167 19.1458 106.479 16.1875 103.312L28.9375 90.375C30.1042 93.25 31.7083 95.9167 33.75 98.375C35.7917 100.792 38.0208 102.875 40.4375 104.625C42.8958 106.375 45.4375 107.75 48.0625 108.75C50.6875 109.75 53.1667 110.25 55.5 110.25C58.25 110.25 60.8333 110.062 63.25 109.688C65.6667 109.271 67.7708 108.604 69.5625 107.688C71.3542 106.771 72.75 105.562 73.75 104.062C74.7917 102.521 75.3125 100.604 75.3125 98.3125C75.3125 96.5625 74.9167 95.0625 74.125 93.8125C73.3333 92.5625 72.2917 91.5 71 90.625C69.75 89.7083 68.3125 88.9375 66.6875 88.3125C65.0625 87.6875 63.3958 87.1667 61.6875 86.75C60.0208 86.2917 58.375 85.8958 56.75 85.5625C55.125 85.1875 53.6875 84.8125 52.4375 84.4375C49.9792 83.7292 47.4167 82.9792 44.75 82.1875C42.0833 81.3542 39.4583 80.4167 36.875 79.375C34.2917 78.3333 31.8333 77.1458 29.5 75.8125C27.2083 74.4375 25.1875 72.8333 23.4375 71C21.6875 69.125 20.2917 66.9792 19.25 64.5625C18.2083 62.1042 17.6875 59.2917 17.6875 56.125C17.6875 52.3333 18.1458 48.9792 19.0625 46.0625C20.0208 43.1042 21.3542 40.5417 23.0625 38.375C24.7708 36.2083 26.7917 34.3958 29.125 32.9375C31.4583 31.4375 34.0208 30.25 36.8125 29.375C39.6042 28.4583 42.5625 27.8125 45.6875 27.4375C48.8542 27.0208 52.0833 26.8125 55.375 26.8125C59.875 26.8125 63.9583 27.2292 67.625 28.0625C71.3333 28.8958 74.75 30.0833 77.875 31.625C81 33.1667 83.8542 35.0208 86.4375 37.1875C89.0625 39.3125 91.5208 41.6875 93.8125 44.3125L81.0625 57.25C80.0625 54.25 78.6667 51.5417 76.875 49.125C75.125 46.7083 73.1667 44.6458 71 42.9375C68.8333 41.1875 66.5625 39.8542 64.1875 38.9375C61.8125 37.9792 59.5208 37.5 57.3125 37.5C54.4375 37.5 51.7917 37.7083 49.375 38.125C46.9583 38.5 44.875 39.1458 43.125 40.0625C41.4167 40.9375 40.0833 42.1458 39.125 43.6875C38.1667 45.1875 37.6875 47.0625 37.6875 49.3125C37.6875 51.1042 38.0417 52.625 38.75 53.875C39.4583 55.125 40.3958 56.1875 41.5625 57.0625C42.7708 57.9375 44.125 58.6667 45.625 59.25C47.125 59.7917 48.6667 60.2708 50.25 60.6875C51.875 61.1042 53.4583 61.4792 55 61.8125C56.5833 62.1042 58.0208 62.4375 59.3125 62.8125C61.8125 63.5208 64.4375 64.2708 67.1875 65.0625C69.9375 65.8542 72.6458 66.7917 75.3125 67.875C77.9792 68.9167 80.5208 70.125 82.9375 71.5C85.3542 72.875 87.4792 74.5208 89.3125 76.4375C91.1458 78.3125 92.6042 80.5 93.6875 83C94.7708 85.4583 95.3125 88.2917 95.3125 91.5Z"/>
</mask>
<path d="M93.8125 101.75L86.2338 99.1882L86.2175 99.2363L86.2019 99.2846L93.8125 101.75ZM89.6875 109.438L83.5223 104.339L83.4929 104.375L83.464 104.411L89.6875 109.438ZM75.5 118.375L73.1707 110.722L73.1551 110.726L73.1394 110.731L75.5 118.375ZM66.4375 120.25L65.5088 112.304L65.4967 112.306L66.4375 120.25ZM44.75 119.812L46.1811 111.942L46.1377 111.934L46.0942 111.926L44.75 119.812ZM34.375 116.812L31.1435 124.131L31.2005 124.156L31.2579 124.18L34.375 116.812ZM25.0625 111.375L20.277 117.786L20.2984 117.802L20.32 117.818L25.0625 111.375ZM16.1875 103.312L10.4895 97.6971L5.10135 103.164L10.3416 108.774L16.1875 103.312ZM28.9375 90.375L36.3504 87.3669L31.777 76.0966L23.2395 84.7596L28.9375 90.375ZM33.75 98.375L27.5957 103.486L27.6172 103.512L27.6389 103.538L33.75 98.375ZM40.4375 104.625L35.7454 111.105L35.7717 111.124L35.798 111.142L40.4375 104.625ZM63.25 109.688L64.4767 117.593L64.5431 117.583L64.6093 117.571L63.25 109.688ZM73.75 104.062L67.1213 99.5836L67.1074 99.6042L67.0936 99.6249L73.75 104.062ZM71 90.625L66.2691 97.0762L66.3895 97.1646L66.5132 97.2483L71 90.625ZM61.6875 86.75L59.5662 94.4636L59.6786 94.4945L59.7919 94.5222L61.6875 86.75ZM56.75 85.5625L54.9511 93.3576L55.0465 93.3796L55.1424 93.3993L56.75 85.5625ZM52.4375 84.4375L54.7363 76.7749L54.6944 76.7623L54.6525 76.7502L52.4375 84.4375ZM44.75 82.1875L42.3638 89.8233L42.4184 89.8404L42.4732 89.8567L44.75 82.1875ZM29.5 75.8125L25.384 82.6724L25.457 82.7162L25.5309 82.7584L29.5 75.8125ZM23.4375 71L17.5891 76.4585L17.6197 76.4913L17.6507 76.5238L23.4375 71ZM19.25 64.5625L11.884 67.6837L11.8936 67.7064L11.9034 67.7291L19.25 64.5625ZM19.0625 46.0625L11.4519 43.5971L11.4411 43.6304L11.4306 43.6639L19.0625 46.0625ZM29.125 32.9375L33.365 39.7215L33.4082 39.6945L33.4511 39.6669L29.125 32.9375ZM36.8125 29.375L39.2052 37.0088L39.2568 36.9926L39.3083 36.9757L36.8125 29.375ZM45.6875 27.4375L46.6407 35.3805L46.6859 35.3751L46.7311 35.3691L45.6875 27.4375ZM67.625 28.0625L65.852 35.8636L65.8615 35.8657L65.871 35.8678L67.625 28.0625ZM86.4375 37.1875L81.2966 43.317L81.3499 43.3617L81.4039 43.4055L86.4375 37.1875ZM93.8125 44.3125L99.5105 49.9279L104.72 44.642L99.839 39.0512L93.8125 44.3125ZM81.0625 57.25L73.473 59.7798L77.6 72.1606L86.7605 62.8654L81.0625 57.25ZM76.875 49.125L70.3955 53.8171L70.4218 53.8534L70.4485 53.8895L76.875 49.125ZM71 42.9375L65.9733 49.161L66.0099 49.1906L66.0468 49.2197L71 42.9375ZM64.1875 38.9375L61.1939 46.3563L61.2503 46.379L61.3069 46.4009L64.1875 38.9375ZM49.375 38.125L50.6017 46.0304L50.6681 46.0201L50.7343 46.0087L49.375 38.125ZM43.125 40.0625L46.772 47.1828L46.8046 47.1661L46.8371 47.1492L43.125 40.0625ZM39.125 43.6875L45.8666 47.9946L45.8932 47.953L45.9193 47.911L39.125 43.6875ZM41.5625 57.0625L36.7625 63.4625L36.8161 63.5027L36.8704 63.542L41.5625 57.0625ZM45.625 59.25L42.7254 66.706L42.8162 66.7413L42.9078 66.7744L45.625 59.25ZM50.25 60.6875L48.2141 68.4241L48.2385 68.4305L48.263 68.4368L50.25 60.6875ZM55 61.8125L53.3093 69.6318L53.4296 69.6578L53.5507 69.6801L55 61.8125ZM59.3125 62.8125L57.082 70.4953L57.1068 70.5025L57.1317 70.5095L59.3125 62.8125ZM75.3125 67.875L72.3015 75.2867L72.3515 75.307L72.4017 75.3267L75.3125 67.875ZM89.3125 76.4375L83.5314 81.9673L83.5617 81.999L83.5924 82.0304L89.3125 76.4375ZM93.6875 83L86.3471 86.1809L86.3569 86.2035L86.3668 86.2261L93.6875 83ZM87.3125 91.5C87.3125 94.7051 86.8969 97.2264 86.2338 99.1882L101.391 104.312C102.728 100.357 103.312 96.0449 103.312 91.5H87.3125ZM86.2019 99.2846C85.5218 101.384 84.6054 103.03 83.5223 104.339L95.8527 114.536C98.353 111.512 100.187 108.033 101.423 104.215L86.2019 99.2846ZM83.464 104.411C82.3072 105.843 80.9342 107.042 79.3042 108.025L87.5708 121.725C90.7741 119.791 93.5678 117.365 95.911 114.464L83.464 104.411ZM79.3042 108.025C77.4887 109.121 75.4542 110.027 73.1707 110.722L77.8293 126.028C81.2958 124.973 84.553 123.546 87.5708 121.725L79.3042 108.025ZM73.1394 110.731C70.8124 111.45 68.2742 111.981 65.5088 112.304L67.3662 128.196C71.0174 127.769 74.5209 127.05 77.8606 126.019L73.1394 110.731ZM65.4967 112.306C62.6521 112.642 59.7373 112.812 56.75 112.812V128.812C60.346 128.812 63.8895 128.608 67.3783 128.194L65.4967 112.306ZM56.75 112.812C52.8212 112.812 49.3067 112.51 46.1811 111.942L43.3189 127.683C47.5266 128.448 52.0121 128.812 56.75 128.812V112.812ZM46.0942 111.926C43.0038 111.399 40.1433 110.566 37.4921 109.445L31.2579 124.18C35.1067 125.809 39.1629 126.976 43.4058 127.699L46.0942 111.926ZM37.6065 109.494C34.9643 108.328 32.3638 106.816 29.805 104.932L20.32 117.818C23.7612 120.351 27.3691 122.464 31.1435 124.131L37.6065 109.494ZM29.848 104.964C27.3295 103.084 24.7215 100.729 22.0334 97.8512L10.3416 108.774C13.5702 112.23 16.8788 115.249 20.277 117.786L29.848 104.964ZM21.8855 108.928L34.6355 95.9904L23.2395 84.7596L10.4895 97.6971L21.8855 108.928ZM21.5246 93.3831C23.0095 97.0423 25.0448 100.415 27.5957 103.486L39.9043 93.2638C38.3718 91.4186 37.1988 89.4577 36.3504 87.3669L21.5246 93.3831ZM27.6389 103.538C30.0734 106.42 32.7736 108.953 35.7454 111.105L45.1296 98.1455C43.2681 96.7975 41.5099 95.1638 39.8611 93.2122L27.6389 103.538ZM35.798 111.142C38.7695 113.258 41.9088 114.967 45.2145 116.226L50.9105 101.274C48.9662 100.533 47.0222 99.4924 45.077 98.1077L35.798 111.142ZM45.2145 116.226C48.5686 117.504 52.0173 118.25 55.5 118.25V102.25C54.316 102.25 52.8064 101.996 50.9105 101.274L45.2145 116.226ZM55.5 118.25C58.611 118.25 61.6078 118.038 64.4767 117.593L62.0233 101.782C60.0589 102.087 57.889 102.25 55.5 102.25V118.25ZM64.6093 117.571C67.6542 117.046 70.559 116.164 73.2063 114.809L65.9187 100.566C64.9827 101.044 63.6791 101.495 61.8907 101.804L64.6093 117.571ZM73.2063 114.809C76.0706 113.344 78.5629 111.265 80.4064 108.5L67.0936 99.6249C66.9371 99.8596 66.6378 100.198 65.9187 100.566L73.2063 114.809ZM80.3787 108.541C82.5022 105.399 83.3125 101.828 83.3125 98.3125H67.3125C67.3125 98.856 67.2505 99.1918 67.2018 99.3709C67.1777 99.4596 67.1559 99.514 67.1432 99.5421C67.1308 99.5695 67.123 99.5811 67.1213 99.5836L80.3787 108.541ZM83.3125 98.3125C83.3125 95.3278 82.6244 92.2807 80.8836 89.5321L67.3664 98.0929C67.3376 98.0474 67.3156 98.0043 67.3 97.9684C67.2847 97.9328 67.2797 97.9135 67.2804 97.9162C67.2818 97.9213 67.3125 98.04 67.3125 98.3125H83.3125ZM80.8836 89.5321C79.4719 87.3032 77.6382 85.4591 75.4868 84.0017L66.5132 97.2483C66.9451 97.5409 67.1948 97.8218 67.3664 98.0929L80.8836 89.5321ZM75.7309 84.1738C73.8437 82.7898 71.7662 81.6945 69.5593 80.8457L63.8157 95.7793C64.8588 96.1805 65.6563 96.6269 66.2691 97.0762L75.7309 84.1738ZM69.5593 80.8457C67.6126 80.097 65.6197 79.4746 63.5831 78.9778L59.7919 94.5222C61.1719 94.8588 62.5124 95.278 63.8157 95.7793L69.5593 80.8457ZM63.8088 79.0364C61.9793 78.5333 60.1621 78.0958 58.3576 77.7257L55.1424 93.3993C56.5879 93.6958 58.0623 94.0501 59.5662 94.4636L63.8088 79.0364ZM58.5489 77.7674C57.0484 77.4211 55.7832 77.089 54.7363 76.7749L50.1387 92.1001C51.5918 92.536 53.2016 92.9539 54.9511 93.3576L58.5489 77.7674ZM54.6525 76.7502C52.2165 76.0483 49.6746 75.3044 47.0268 74.5183L42.4732 89.8567C45.1587 90.6539 47.7419 91.41 50.2225 92.1248L54.6525 76.7502ZM47.1362 74.5517C44.6736 73.7821 42.2506 72.9167 39.8667 71.9555L33.8833 86.7945C36.6661 87.9166 39.4931 88.9262 42.3638 89.8233L47.1362 74.5517ZM39.8667 71.9555C37.6074 71.0444 35.4766 70.0137 33.4691 68.8666L25.5309 82.7584C28.1901 84.278 30.976 85.6222 33.8833 86.7945L39.8667 71.9555ZM33.616 68.9526C31.9051 67.926 30.4535 66.7639 29.2243 65.4762L17.6507 76.5238C19.9215 78.9028 22.5115 80.949 25.384 82.6724L33.616 68.9526ZM29.2859 65.5415C28.1797 64.3562 27.2839 62.9905 26.5966 61.3959L11.9034 67.7291C13.2994 70.9678 15.1953 73.8938 17.5891 76.4585L29.2859 65.5415ZM26.616 61.4413C26.063 60.1362 25.6875 58.4154 25.6875 56.125H9.6875C9.6875 60.1679 10.3537 64.0721 11.884 67.6837L26.616 61.4413ZM25.6875 56.125C25.6875 52.9599 26.0721 50.4413 26.6944 48.4611L11.4306 43.6639C10.2196 47.517 9.6875 51.7068 9.6875 56.125H25.6875ZM26.6731 48.5279C27.3762 46.3574 28.2926 44.6626 29.3447 43.3282L16.7803 33.4218C14.4157 36.4208 12.6654 39.8509 11.4519 43.5971L26.6731 48.5279ZM29.3447 43.3282C30.4843 41.8828 31.8149 40.6903 33.365 39.7215L24.885 26.1535C21.7685 28.1014 19.0573 30.5339 16.7803 33.4218L29.3447 43.3282ZM33.4511 39.6669C35.1512 38.574 37.0582 37.6817 39.2052 37.0088L34.4198 21.7412C30.9835 22.8183 27.7654 24.301 24.7989 26.2081L33.4511 39.6669ZM39.3083 36.9757C41.5642 36.235 44.003 35.697 46.6407 35.3805L44.7343 19.4945C41.122 19.928 37.6442 20.6817 34.3167 21.7743L39.3083 36.9757ZM46.7311 35.3691C49.5414 34.9994 52.4217 34.8125 55.375 34.8125V18.8125C51.745 18.8125 48.1669 19.0423 44.6439 19.5059L46.7311 35.3691ZM55.375 34.8125C59.3911 34.8125 62.8676 35.1853 65.852 35.8636L69.398 20.2614C65.0491 19.2731 60.3589 18.8125 55.375 18.8125V34.8125ZM65.871 35.8678C69.0167 36.5748 71.8274 37.5621 74.3356 38.7994L81.4144 24.4506C77.6726 22.6046 73.65 21.2169 69.379 20.2572L65.871 35.8678ZM74.3356 38.7994C76.9062 40.0676 79.2196 41.575 81.2966 43.317L91.5784 31.058C88.4887 28.4666 85.0938 26.2657 81.4144 24.4506L74.3356 38.7994ZM81.4039 43.4055C83.6598 45.2317 85.7875 47.2847 87.786 49.5738L99.839 39.0512C97.2541 36.0903 94.4652 33.3933 91.4711 30.9695L81.4039 43.4055ZM88.1145 38.6971L75.3645 51.6346L86.7605 62.8654L99.5105 49.9279L88.1145 38.6971ZM88.652 54.7202C87.3985 50.9598 85.6217 47.4901 83.3015 44.3605L70.4485 53.8895C71.7117 55.5933 72.7265 57.5402 73.473 59.7798L88.652 54.7202ZM83.3545 44.4329C81.2066 41.4667 78.7447 38.8563 75.9532 36.6553L66.0468 49.2197C67.5886 50.4354 69.0434 51.9499 70.3955 53.8171L83.3545 44.4329ZM76.0267 36.714C73.2739 34.4905 70.2879 32.7168 67.0681 31.4741L61.3069 46.4009C62.8371 46.9915 64.3928 47.8845 65.9733 49.161L76.0267 36.714ZM67.1811 31.5187C64.0047 30.237 60.697 29.5 57.3125 29.5V45.5C58.3447 45.5 59.6203 45.7213 61.1939 46.3563L67.1811 31.5187ZM57.3125 29.5C54.0575 29.5 50.9501 29.7354 48.0157 30.2413L50.7343 46.0087C52.6332 45.6813 54.8175 45.5 57.3125 45.5V29.5ZM48.1483 30.2196C45.0622 30.6985 42.1007 31.568 39.4129 32.9758L46.8371 47.1492C47.6493 46.7237 48.8545 46.3015 50.6017 46.0304L48.1483 30.2196ZM39.478 32.9422C36.5544 34.4396 34.1003 36.6173 32.3307 39.464L45.9193 47.911C46.0663 47.6744 46.279 47.4354 46.772 47.1828L39.478 32.9422ZM32.3834 39.3804C30.4115 42.467 29.6875 45.9366 29.6875 49.3125H45.6875C45.6875 48.1884 45.9219 47.908 45.8666 47.9946L32.3834 39.3804ZM29.6875 49.3125C29.6875 52.1495 30.251 55.1036 31.7898 57.8191L45.7102 49.9309C45.8323 50.1464 45.6875 50.0589 45.6875 49.3125H29.6875ZM31.7898 57.8191C33.0497 60.0425 34.728 61.9366 36.7625 63.4625L46.3625 50.6625C46.0637 50.4384 45.8669 50.2075 45.7102 49.9309L31.7898 57.8191ZM36.8704 63.542C38.6738 64.8479 40.6385 65.8944 42.7254 66.706L48.5246 51.794C47.6115 51.4389 46.8679 51.0271 46.2546 50.583L36.8704 63.542ZM42.9078 66.7744C44.6375 67.399 46.4067 67.9485 48.2141 68.4241L52.2859 52.9509C50.9266 52.5932 49.6125 52.1843 48.3422 51.7256L42.9078 66.7744ZM48.263 68.4368C49.9802 68.8771 51.6624 69.2757 53.3093 69.6318L56.6907 53.9932C55.2542 53.6826 53.7698 53.3312 52.237 52.9382L48.263 68.4368ZM53.5507 69.6801C54.9201 69.9324 56.0916 70.2077 57.082 70.4953L61.543 55.1297C59.95 54.6673 58.2465 54.2759 56.4493 53.9449L53.5507 69.6801ZM57.1317 70.5095C59.6199 71.2145 62.2341 71.9614 64.9744 72.7503L69.4006 57.3747C66.6409 56.5803 64.0051 55.8272 61.4933 55.1155L57.1317 70.5095ZM64.9744 72.7503C67.4522 73.4636 69.8942 74.3088 72.3015 75.2867L78.3235 60.4633C75.3975 59.2746 72.4228 58.2447 69.4006 57.3747L64.9744 72.7503ZM72.4017 75.3267C74.719 76.2318 76.9104 77.275 78.9813 78.4533L86.8937 64.5467C84.1313 62.975 81.2394 61.6015 78.2233 60.4233L72.4017 75.3267ZM78.9813 78.4533C80.7566 79.4634 82.2595 80.6376 83.5314 81.9673L95.0936 70.9077C92.6988 68.404 89.9518 66.2866 86.8937 64.5467L78.9813 78.4533ZM83.5924 82.0304C84.7164 83.1799 85.6367 84.5416 86.3471 86.1809L101.028 79.8191C99.5716 76.4584 97.5753 73.4451 95.0326 70.8446L83.5924 82.0304ZM86.3668 86.2261C86.9239 87.4902 87.3125 89.1904 87.3125 91.5H103.312C103.312 87.393 102.618 83.4265 101.008 79.7739L86.3668 86.2261Z" fill="#F5F5F5" mask="url(#path-1-outside-1_21_44)"/>
<mask id="path-3-outside-2_21_44" maskUnits="userSpaceOnUse" x="101" y="21" width="115" height="106" fill="black">
<rect fill="white" x="101" y="21" width="115" height="106"/>
<path d="M133.812 119H109V29H153.25C157.417 29 161.438 29.5 165.312 30.5C169.188 31.4583 172.604 33 175.562 35.125C178.562 37.2083 180.938 39.9167 182.688 43.25C184.479 46.5833 185.375 50.625 185.375 55.375C185.375 59.0833 184.583 62.5833 183 65.875C181.458 69.125 179.375 72.0417 176.75 74.625C174.167 77.1667 171.188 79.2917 167.812 81C164.438 82.6667 160.938 83.7708 157.312 84.3125C158.938 87.0625 160.625 89.6667 162.375 92.125C164.167 94.5833 165.958 96.8958 167.75 99.0625C169.583 101.188 171.396 103.167 173.188 105C174.979 106.792 176.688 108.438 178.312 109.938C182.146 113.438 185.938 116.458 189.688 119H158.75C156.25 116.625 153.875 113.771 151.625 110.438C149.708 107.604 147.771 104.104 145.812 99.9375C143.896 95.7292 142.417 90.875 141.375 85.375H133.812V119ZM160.188 55.375C160.188 49.3333 158.708 44.8958 155.75 42.0625C152.833 39.2292 148.438 37.8125 142.562 37.8125H133.812V76.875H142.562C145.688 76.875 148.354 76.2917 150.562 75.125C152.812 73.9167 154.646 72.3333 156.062 70.375C157.479 68.375 158.521 66.0833 159.188 63.5C159.854 60.9167 160.188 58.2083 160.188 55.375Z"/>
</mask>
<path d="M133.812 119V127H141.812V119H133.812ZM109 119H101V127H109V119ZM109 29V21H101V29H109ZM165.312 30.5L163.313 38.2462L163.353 38.2563L163.392 38.266L165.312 30.5ZM175.562 35.125L170.895 41.6225L170.947 41.6596L170.999 41.696L175.562 35.125ZM182.688 43.25L175.604 46.9687L175.622 47.0032L175.641 47.0375L182.688 43.25ZM183 65.875L175.791 62.4072L175.781 62.4267L175.772 62.4463L183 65.875ZM176.75 74.625L182.361 80.3277L182.361 80.3269L176.75 74.625ZM167.812 81L171.355 88.173L171.39 88.1555L171.425 88.1377L167.812 81ZM157.312 84.3125L156.13 76.4003L144.382 78.1558L150.425 88.3823L157.312 84.3125ZM162.375 92.125L155.858 96.7645L155.884 96.8008L155.91 96.8369L162.375 92.125ZM167.75 99.0625L161.585 104.161L161.638 104.225L161.693 104.288L167.75 99.0625ZM173.188 105L167.466 110.591L167.498 110.624L167.531 110.657L173.188 105ZM178.312 109.938L172.886 115.816L172.902 115.831L172.918 115.845L178.312 109.938ZM189.688 119V127H215.75L194.176 112.378L189.688 119ZM158.75 119L153.24 124.8L155.556 127H158.75V119ZM151.625 110.438L158.256 105.962L158.251 105.955L151.625 110.438ZM145.812 99.9375L138.532 103.253L138.552 103.297L138.572 103.34L145.812 99.9375ZM141.375 85.375L149.235 83.8863L148.002 77.375H141.375V85.375ZM133.812 85.375V77.375H125.812V85.375H133.812ZM155.75 42.0625L150.176 47.8007L150.196 47.8205L150.217 47.8401L155.75 42.0625ZM133.812 37.8125V29.8125H125.812V37.8125H133.812ZM133.812 76.875H125.812V84.875H133.812V76.875ZM150.562 75.125L154.299 82.1985L154.324 82.1858L154.348 82.173L150.562 75.125ZM156.062 70.375L162.544 75.064L162.568 75.0317L162.591 74.9991L156.062 70.375ZM133.812 111H109V127H133.812V111ZM117 119V29H101V119H117ZM109 37H153.25V21H109V37ZM153.25 37C156.77 37 160.118 37.4215 163.313 38.2462L167.312 22.7538C162.757 21.5785 158.063 21 153.25 21V37ZM163.392 38.266C166.374 39.0035 168.839 40.1457 170.895 41.6225L180.23 28.6275C176.369 25.8543 172.001 23.9131 167.233 22.734L163.392 38.266ZM170.999 41.696C172.909 43.022 174.434 44.7386 175.604 46.9687L189.771 39.5313C187.441 35.0947 184.216 31.3946 180.126 28.554L170.999 41.696ZM175.641 47.0375C176.667 48.9463 177.375 51.616 177.375 55.375H193.375C193.375 49.634 192.291 44.2204 189.734 39.4625L175.641 47.0375ZM177.375 55.375C177.375 57.9017 176.845 60.2144 175.791 62.4072L190.209 69.3428C192.321 64.9522 193.375 60.265 193.375 55.375H177.375ZM175.772 62.4463C174.642 64.8294 173.112 66.981 171.139 68.9231L182.361 80.3269C185.638 77.1023 188.275 73.4206 190.228 69.3037L175.772 62.4463ZM171.139 68.9223C169.169 70.8606 166.871 72.51 164.2 73.8623L171.425 88.1377C175.504 86.0733 179.164 83.4728 182.361 80.3277L171.139 68.9223ZM164.27 73.827C161.619 75.1364 158.913 75.9845 156.13 76.4003L158.495 92.2247C162.962 91.5571 167.256 90.1969 171.355 88.173L164.27 73.827ZM150.425 88.3823C152.159 91.3161 153.969 94.1112 155.858 96.7645L168.892 87.4855C167.281 85.2221 165.716 82.8089 164.2 80.2427L150.425 88.3823ZM155.91 96.8369C157.79 99.4164 159.681 101.859 161.585 104.161L173.915 93.9644C172.235 91.9331 170.543 89.7503 168.84 87.4131L155.91 96.8369ZM161.693 104.288C163.624 106.527 165.548 108.629 167.466 110.591L178.909 99.4085C177.243 97.704 175.542 95.8479 173.807 93.8366L161.693 104.288ZM167.531 110.657C169.387 112.513 171.173 114.234 172.886 115.816L183.739 104.059C182.202 102.641 180.571 101.07 178.844 99.3431L167.531 110.657ZM172.918 115.845C176.996 119.568 181.088 122.836 185.199 125.622L194.176 112.378C190.787 110.081 187.296 107.307 183.707 104.03L172.918 115.845ZM189.688 111H158.75V127H189.688V111ZM164.26 113.2C162.243 111.284 160.233 108.892 158.256 105.962L144.994 114.913C147.517 118.65 150.257 121.966 153.24 124.8L164.26 113.2ZM158.251 105.955C156.631 103.559 154.891 100.445 153.053 96.5346L138.572 103.34C140.651 107.763 142.786 111.649 144.999 114.92L158.251 105.955ZM153.093 96.6216C151.491 93.1039 150.182 88.8833 149.235 83.8863L133.515 86.8637C134.652 92.8667 136.301 98.3544 138.532 103.253L153.093 96.6216ZM141.375 77.375H133.812V93.375H141.375V77.375ZM125.812 85.375V119H141.812V85.375H125.812ZM168.188 55.375C168.188 48.1894 166.436 41.2195 161.283 36.2849L150.217 47.8401C150.981 48.5722 152.188 50.4773 152.188 55.375H168.188ZM161.324 36.3243C156.362 31.5036 149.595 29.8125 142.562 29.8125V45.8125C147.28 45.8125 149.305 46.9547 150.176 47.8007L161.324 36.3243ZM142.562 29.8125H133.812V45.8125H142.562V29.8125ZM125.812 37.8125V76.875H141.812V37.8125H125.812ZM133.812 84.875H142.562V68.875H133.812V84.875ZM142.562 84.875C146.669 84.875 150.686 84.1077 154.299 82.1985L146.826 68.0515C146.023 68.4756 144.706 68.875 142.562 68.875V84.875ZM154.348 82.173C157.601 80.4255 160.379 78.0577 162.544 75.064L149.581 65.686C148.913 66.6089 148.024 67.4078 146.777 68.077L154.348 82.173ZM162.591 74.9991C164.617 72.1379 166.046 68.9405 166.934 65.499L151.441 61.501C150.996 63.2261 150.341 64.6121 149.534 65.7509L162.591 74.9991ZM166.934 65.499C167.779 62.2236 168.188 58.8411 168.188 55.375H152.188C152.188 57.5756 151.929 59.6098 151.441 61.501L166.934 65.499Z" fill="#F5F5F5" mask="url(#path-3-outside-2_21_44)"/>
<mask id="path-5-outside-3_21_44" maskUnits="userSpaceOnUse" x="203" y="21" width="98" height="106" fill="black">
<rect fill="white" x="203" y="21" width="98" height="106"/>
<path d="M236.188 119H211.375V29H260C264.208 29 268.229 29.5625 272.062 30.6875C275.938 31.8125 279.354 33.5208 282.312 35.8125C285.271 38.0625 287.625 40.9167 289.375 44.375C291.167 47.7917 292.062 51.8125 292.062 56.4375C292.062 59.3542 291.646 62.1042 290.812 64.6875C289.979 67.2292 288.812 69.5625 287.312 71.6875C285.854 73.8125 284.125 75.7292 282.125 77.4375C280.125 79.1458 277.938 80.5833 275.562 81.75C273.188 82.9167 270.667 83.8125 268 84.4375C265.375 85.0625 262.708 85.375 260 85.375H236.188V119ZM266.938 56.4375C266.938 50.6458 265.458 46.1042 262.5 42.8125C259.583 39.4792 255.167 37.8125 249.25 37.8125H236.188V76.875H249.25C252.417 76.875 255.104 76.375 257.312 75.375C259.562 74.3333 261.396 72.8958 262.812 71.0625C264.229 69.2292 265.271 67.0833 265.938 64.625C266.604 62.125 266.938 59.3958 266.938 56.4375Z"/>
</mask>
<path d="M236.188 119V127H244.188V119H236.188ZM211.375 119H203.375V127H211.375V119ZM211.375 29V21H203.375V29H211.375ZM272.062 30.6875L269.81 38.3638L269.821 38.367L269.832 38.3703L272.062 30.6875ZM282.312 35.8125L277.413 42.1369L277.441 42.1586L277.47 42.1801L282.312 35.8125ZM289.375 44.375L282.237 47.9871L282.263 48.0389L282.29 48.0903L289.375 44.375ZM290.812 64.6875L298.414 67.1799L298.42 67.1617L298.426 67.1435L290.812 64.6875ZM287.312 71.6875L280.777 67.074L280.746 67.1172L280.716 67.1608L287.312 71.6875ZM268 84.4375L266.174 76.6486L266.161 76.6518L266.147 76.6551L268 84.4375ZM236.188 85.375V77.375H228.188V85.375H236.188ZM262.5 42.8125L256.479 48.0805L256.514 48.1205L256.55 48.1601L262.5 42.8125ZM236.188 37.8125V29.8125H228.188V37.8125H236.188ZM236.188 76.875H228.188V84.875H236.188V76.875ZM257.312 75.375L260.613 82.6626L260.643 82.6488L260.673 82.6347L257.312 75.375ZM265.938 64.625L273.659 66.7189L273.663 66.7026L273.667 66.6863L265.938 64.625ZM236.188 111H211.375V127H236.188V111ZM219.375 119V29H203.375V119H219.375ZM211.375 37H260V21H211.375V37ZM260 37C263.487 37 266.746 37.4647 269.81 38.3638L274.315 23.0112C269.712 21.6603 264.93 21 260 21V37ZM269.832 38.3703C272.816 39.2366 275.312 40.5088 277.413 42.1369L287.212 29.4881C283.397 26.5329 279.059 24.3884 274.293 23.0047L269.832 38.3703ZM277.47 42.1801C279.423 43.6655 281.009 45.5615 282.237 47.9871L296.513 40.7629C294.241 36.2718 291.119 32.4595 287.155 29.4449L277.47 42.1801ZM282.29 48.0903C283.372 50.1539 284.062 52.8511 284.062 56.4375H300.062C300.062 50.7739 298.961 45.4294 296.46 40.6597L282.29 48.0903ZM284.062 56.4375C284.062 58.5825 283.758 60.4987 283.199 62.2315L298.426 67.1435C299.534 63.7096 300.062 60.1259 300.062 56.4375H284.062ZM283.211 62.1951C282.618 64.0023 281.805 65.6174 280.777 67.074L293.848 76.301C295.82 73.5076 297.34 70.456 298.414 67.1799L283.211 62.1951ZM280.716 67.1608C279.663 68.6961 278.407 70.0919 276.929 71.3545L287.321 83.5205C289.843 81.3664 292.046 78.9289 293.909 76.2142L280.716 67.1608ZM276.929 71.3545C275.44 72.6261 273.814 73.6958 272.035 74.5696L279.09 88.9304C282.061 87.4709 284.81 85.6655 287.321 83.5205L276.929 71.3545ZM272.035 74.5696C270.221 75.4606 268.273 76.1566 266.174 76.6486L269.826 92.2264C273.06 91.4684 276.154 90.3728 279.09 88.9304L272.035 74.5696ZM266.147 76.6551C264.131 77.135 262.087 77.375 260 77.375V93.375C263.33 93.375 266.619 92.99 269.853 92.2199L266.147 76.6551ZM260 77.375H236.188V93.375H260V77.375ZM228.188 85.375V119H244.188V85.375H228.188ZM274.938 56.4375C274.938 49.2952 273.093 42.6309 268.45 37.4649L256.55 48.1601C257.824 49.5774 258.938 51.9965 258.938 56.4375H274.938ZM268.521 37.5445C263.619 31.9423 256.656 29.8125 249.25 29.8125V45.8125C253.677 45.8125 255.548 47.016 256.479 48.0805L268.521 37.5445ZM249.25 29.8125H236.188V45.8125H249.25V29.8125ZM228.188 37.8125V76.875H244.188V37.8125H228.188ZM236.188 84.875H249.25V68.875H236.188V84.875ZM249.25 84.875C253.221 84.875 257.101 84.2526 260.613 82.6626L254.012 68.0874C253.107 68.4974 251.612 68.875 249.25 68.875V84.875ZM260.673 82.6347C264.005 81.0923 266.886 78.8744 269.143 75.9541L256.482 66.1709C255.906 66.9172 255.12 67.5743 253.952 68.1153L260.673 82.6347ZM269.143 75.9541C271.264 73.2095 272.744 70.0909 273.659 66.7189L258.216 62.5311C257.797 64.0758 257.195 65.2489 256.482 66.1709L269.143 75.9541ZM273.667 66.6863C274.537 63.4258 274.938 59.9943 274.938 56.4375H258.938C258.938 58.7974 258.671 60.8242 258.208 62.5637L273.667 66.6863Z" fill="#F5F5F5" mask="url(#path-5-outside-3_21_44)"/>
</svg>
