<svg width="502" height="184" viewBox="0 0 502 184" fill="none" xmlns="http://www.w3.org/2000/svg">
<mask id="path-1-outside-1_14_147" maskUnits="userSpaceOnUse" x="17" y="17" width="119" height="132" fill="black">
<rect fill="white" x="17" y="17" width="119" height="132"/>
<path d="M123.813 103.773C123.813 108.314 123.227 112.318 122.055 115.785C120.932 119.252 119.321 122.255 117.221 124.794C115.17 127.333 112.729 129.457 109.897 131.166C107.065 132.875 103.964 134.242 100.595 135.268C97.2746 136.293 93.7346 137.025 89.9748 137.465C86.2639 137.904 82.4797 138.124 78.6223 138.124C73.5441 138.124 68.8566 137.733 64.5598 136.952C60.2629 136.22 56.2102 135.048 52.4016 133.437C48.6418 131.776 45.0041 129.652 41.4885 127.064C38.0217 124.477 34.5549 121.327 31.0881 117.616L46.0295 102.455C47.3967 105.824 49.2766 108.949 51.6691 111.83C54.0617 114.662 56.674 117.104 59.5061 119.154C62.3869 121.205 65.3654 122.816 68.4416 123.988C71.5178 125.16 74.423 125.746 77.1574 125.746C80.3801 125.746 83.4074 125.526 86.2395 125.087C89.0715 124.599 91.5373 123.817 93.6369 122.743C95.7365 121.669 97.3723 120.253 98.5441 118.495C99.7648 116.688 100.375 114.442 100.375 111.757C100.375 109.706 99.9113 107.948 98.9836 106.483C98.0559 105.019 96.8352 103.773 95.3215 102.748C93.8566 101.674 92.1721 100.771 90.2678 100.038C88.3635 99.3057 86.4104 98.6953 84.4084 98.207C82.4553 97.6699 80.5266 97.2061 78.6223 96.8154C76.718 96.376 75.0334 95.9365 73.5686 95.4971C70.6877 94.667 67.6848 93.7881 64.5598 92.8604C61.4348 91.8838 58.3586 90.7852 55.3313 89.5645C52.3039 88.3438 49.423 86.9521 46.6887 85.3896C44.0031 83.7783 41.635 81.8984 39.5842 79.75C37.5334 77.5527 35.8977 75.0381 34.677 72.2061C33.4563 69.3252 32.8459 66.0293 32.8459 62.3184C32.8459 57.875 33.383 53.9443 34.4572 50.5264C35.5803 47.0596 37.1428 44.0566 39.1447 41.5176C41.1467 38.9785 43.5148 36.8545 46.2492 35.1455C48.9836 33.3877 51.9865 31.9961 55.258 30.9707C58.5295 29.8965 61.9963 29.1396 65.6584 28.7002C69.3693 28.2119 73.1535 27.9678 77.0109 27.9678C82.2844 27.9678 87.0695 28.4561 91.3664 29.4326C95.7121 30.4092 99.716 31.8008 103.378 33.6074C107.04 35.4141 110.385 37.5869 113.412 40.126C116.488 42.6162 119.369 45.3994 122.055 48.4756L107.113 63.6367C105.942 60.1211 104.306 56.9473 102.206 54.1152C100.155 51.2832 97.8605 48.8662 95.3215 46.8643C92.7824 44.8135 90.1213 43.251 87.3381 42.1768C84.5549 41.0537 81.8693 40.4922 79.2814 40.4922C75.9123 40.4922 72.8117 40.7363 69.9797 41.2246C67.1477 41.6641 64.7063 42.4209 62.6555 43.4951C60.6535 44.5205 59.091 45.9365 57.968 47.7432C56.8449 49.501 56.2834 51.6982 56.2834 54.335C56.2834 56.4346 56.6984 58.2168 57.5285 59.6816C58.3586 61.1465 59.4572 62.3916 60.8244 63.417C62.2404 64.4424 63.8273 65.2969 65.5852 65.9805C67.343 66.6152 69.1496 67.1768 71.0051 67.665C72.9094 68.1533 74.7648 68.5928 76.5715 68.9834C78.427 69.3252 80.1115 69.7158 81.6252 70.1553C84.5549 70.9854 87.6311 71.8643 90.8537 72.792C94.0764 73.7197 97.2502 74.8184 100.375 76.0879C103.5 77.3086 106.479 78.7246 109.311 80.3359C112.143 81.9473 114.633 83.876 116.781 86.1221C118.93 88.3193 120.639 90.8828 121.908 93.8125C123.178 96.6934 123.813 100.014 123.813 103.773Z"/>
</mask>
<path d="M122.055 115.785L112.581 112.583L112.561 112.643L112.542 112.703L122.055 115.785ZM117.221 124.794L109.514 118.421L109.478 118.466L109.441 118.511L117.221 124.794ZM100.595 135.268L97.6833 125.701L97.6637 125.707L97.6442 125.713L100.595 135.268ZM89.9748 137.465L88.8139 127.532L88.8063 127.533L88.7988 127.534L89.9748 137.465ZM64.5598 136.952L66.3486 127.113L66.2944 127.104L66.2401 127.094L64.5598 136.952ZM52.4016 133.437L48.3622 142.584L48.4335 142.616L48.5052 142.646L52.4016 133.437ZM41.4885 127.064L35.5066 135.078L35.5334 135.098L35.5603 135.118L41.4885 127.064ZM31.0881 117.616L23.9656 110.597L17.2304 117.431L23.7807 124.443L31.0881 117.616ZM46.0295 102.455L55.2956 98.6949L49.5788 84.6071L38.907 95.4358L46.0295 102.455ZM51.6691 111.83L43.9763 118.219L44.0031 118.251L44.0303 118.284L51.6691 111.83ZM59.5061 119.154L53.641 127.254L53.6738 127.277L53.7067 127.301L59.5061 119.154ZM86.2395 125.087L87.7728 134.969L87.8558 134.956L87.9385 134.942L86.2395 125.087ZM98.5441 118.495L90.2583 112.897L90.2409 112.922L90.2236 112.948L98.5441 118.495ZM95.3215 102.748L89.4079 110.812L89.5584 110.923L89.713 111.027L95.3215 102.748ZM84.4084 98.207L81.7568 107.849L81.8973 107.888L82.0388 107.922L84.4084 98.207ZM78.6223 96.8154L76.3737 106.559L76.4929 106.587L76.6128 106.611L78.6223 96.8154ZM73.5686 95.4971L76.442 85.9188L76.3897 85.9031L76.3373 85.888L73.5686 95.4971ZM64.5598 92.8604L61.577 102.405L61.6453 102.426L61.7138 102.447L64.5598 92.8604ZM46.6887 85.3896L41.5437 93.9646L41.6349 94.0193L41.7273 94.0721L46.6887 85.3896ZM39.5842 79.75L32.2736 86.5732L32.3119 86.6142L32.3506 86.6548L39.5842 79.75ZM34.677 72.2061L25.4694 76.1075L25.4815 76.136L25.4937 76.1643L34.677 72.2061ZM34.4572 50.5264L24.9439 47.4446L24.9304 47.4863L24.9173 47.5281L34.4572 50.5264ZM46.2492 35.1455L51.5492 43.6255L51.6032 43.5917L51.6568 43.5573L46.2492 35.1455ZM55.258 30.9707L58.2489 40.513L58.3134 40.4927L58.3777 40.4716L55.258 30.9707ZM65.6584 28.7002L66.8499 38.629L66.9064 38.6222L66.9629 38.6147L65.6584 28.7002ZM91.3664 29.4326L89.1502 39.1839L89.162 39.1866L89.1739 39.1893L91.3664 29.4326ZM113.412 40.126L106.986 47.7879L107.053 47.8437L107.12 47.8984L113.412 40.126ZM122.055 48.4756L129.177 55.4949L135.689 48.8874L129.588 41.899L122.055 48.4756ZM107.113 63.6367L97.6266 66.799L102.785 82.275L114.236 70.656L107.113 63.6367ZM102.206 54.1152L94.1068 59.9803L94.1397 60.0258L94.1731 60.0708L102.206 54.1152ZM95.3215 46.8643L89.0381 54.6437L89.0838 54.6806L89.1299 54.7169L95.3215 46.8643ZM87.3381 42.1768L83.5961 51.4503L83.6665 51.4787L83.7373 51.506L87.3381 42.1768ZM69.9797 41.2246L71.5131 51.1063L71.596 51.0935L71.6788 51.0792L69.9797 41.2246ZM62.6555 43.4951L67.2142 52.3956L67.255 52.3747L67.2955 52.3534L62.6555 43.4951ZM57.968 47.7432L66.3949 53.1271L66.4282 53.075L66.4608 53.0225L57.968 47.7432ZM60.8244 63.417L54.8244 71.417L54.8915 71.4673L54.9593 71.5164L60.8244 63.417ZM65.5852 65.9805L61.9607 75.3005L62.0742 75.3446L62.1887 75.386L65.5852 65.9805ZM71.0051 67.665L68.4601 77.3358L68.4907 77.3438L68.5213 77.3517L71.0051 67.665ZM76.5715 68.9834L74.4582 78.7575L74.6085 78.7901L74.7599 78.8179L76.5715 68.9834ZM81.6252 70.1553L78.8371 79.7587L78.8681 79.7677L78.8992 79.7765L81.6252 70.1553ZM100.375 76.0879L96.6114 85.3526L96.6739 85.3779L96.7367 85.4025L100.375 76.0879ZM116.781 86.1221L109.555 93.0343L109.593 93.074L109.631 93.1132L116.781 86.1221ZM121.908 93.8125L112.733 97.7886L112.745 97.8169L112.758 97.8451L121.908 93.8125ZM113.813 103.773C113.813 107.477 113.332 110.362 112.581 112.583L131.528 118.987C133.121 114.275 133.813 109.152 133.813 103.773H113.813ZM112.542 112.703C111.766 115.096 110.728 116.953 109.514 118.421L124.927 131.167C127.913 127.556 130.097 123.408 131.568 118.867L112.542 112.703ZM109.441 118.511C108.132 120.131 106.579 121.488 104.73 122.604L115.063 139.728C118.879 137.426 122.208 134.535 125 131.077L109.441 118.511ZM104.73 122.604C102.649 123.86 100.313 124.9 97.6833 125.701L103.507 144.834C107.615 143.584 111.48 141.89 115.063 139.728L104.73 122.604ZM97.6442 125.713C94.9568 126.543 92.0201 127.158 88.8139 127.532L91.1357 147.397C95.4491 146.893 99.5924 146.043 103.546 144.822L97.6442 125.713ZM88.7988 127.534C85.4905 127.926 82.0993 128.124 78.6223 128.124V148.124C82.8601 148.124 87.0372 147.883 91.1508 147.395L88.7988 127.534ZM78.6223 128.124C74.0498 128.124 69.9692 127.772 66.3486 127.113L62.7709 146.791C67.744 147.695 73.0385 148.124 78.6223 148.124V128.124ZM66.2401 127.094C62.6635 126.485 59.3581 125.522 56.298 124.227L48.5052 142.646C53.0622 144.574 57.8623 145.955 62.8795 146.81L66.2401 127.094ZM56.4409 124.289C53.3888 122.941 50.3808 121.193 47.4167 119.011L35.5603 135.118C39.6274 138.112 43.8948 140.612 48.3622 142.584L56.4409 124.289ZM47.4704 119.051C44.5534 116.873 41.5245 114.139 38.3954 110.79L23.7807 124.443C27.5853 128.515 31.49 132.08 35.5066 135.078L47.4704 119.051ZM38.2106 124.635L53.152 109.474L38.907 95.4358L23.9656 110.597L38.2106 124.635ZM36.7634 106.215C38.5283 110.565 40.9472 114.572 43.9763 118.219L59.362 105.441C57.6059 103.327 56.265 101.084 55.2956 98.6949L36.7634 106.215ZM44.0303 118.284C46.9139 121.697 50.115 124.7 53.641 127.254L65.3712 111.055C63.2331 109.507 61.2095 107.627 59.308 105.377L44.0303 118.284ZM53.7067 127.301C57.229 129.808 60.9546 131.837 64.8817 133.333L72.0016 114.643C69.7763 113.796 67.5448 112.602 65.3054 111.008L53.7067 127.301ZM64.8817 133.333C68.8691 134.852 72.9863 135.746 77.1574 135.746V115.746C75.8598 115.746 74.1664 115.468 72.0016 114.643L64.8817 133.333ZM77.1574 135.746C80.8313 135.746 84.3755 135.496 87.7728 134.969L84.7061 115.205C82.4393 115.557 79.9289 115.746 77.1574 115.746V135.746ZM87.9385 134.942C91.5559 134.318 95.0225 133.267 98.1917 131.646L89.0822 113.841C88.0521 114.368 86.587 114.879 84.5404 115.232L87.9385 134.942ZM98.1917 131.646C101.632 129.885 104.638 127.382 106.865 124.042L90.2236 112.948C90.1062 113.124 89.841 113.452 89.0822 113.841L98.1917 131.646ZM106.83 124.094C109.403 120.286 110.375 115.972 110.375 111.757H90.3752C90.3752 112.347 90.3079 112.684 90.2674 112.833C90.2308 112.968 90.2131 112.963 90.2583 112.897L106.83 124.094ZM110.375 111.757C110.375 108.163 109.546 104.471 107.432 101.133L90.5354 111.834C90.4839 111.753 90.4428 111.673 90.4118 111.601C90.381 111.53 90.3651 111.478 90.3583 111.452C90.3445 111.4 90.3752 111.485 90.3752 111.757H110.375ZM107.432 101.133C105.729 98.4444 103.518 96.2223 100.93 94.4689L89.713 111.027C90.152 111.325 90.3826 111.593 90.5354 111.834L107.432 101.133ZM101.235 94.684C98.9737 93.0256 96.4892 91.7168 93.8576 90.7046L86.678 109.372C87.8549 109.824 88.7396 110.322 89.4079 110.812L101.235 94.684ZM93.8576 90.7046C91.5511 89.8175 89.1903 89.0802 86.778 88.4918L82.0388 107.922C83.6305 108.31 85.1758 108.794 86.678 109.372L93.8576 90.7046ZM87.06 88.565C84.9034 87.9719 82.7605 87.4561 80.6317 87.0194L76.6128 106.611C78.2927 106.956 80.0072 107.368 81.7568 107.849L87.06 88.565ZM80.8709 87.0715C79.1222 86.668 77.6531 86.2821 76.442 85.9188L70.6951 105.075C72.4137 105.591 74.3138 106.084 76.3737 106.559L80.8709 87.0715ZM76.3373 85.888C73.4843 85.066 70.5072 84.1946 67.4058 83.2739L61.7138 102.447C64.8623 103.382 67.8911 104.268 70.7998 105.106L76.3373 85.888ZM67.5425 83.3156C64.6726 82.4187 61.8489 81.4102 59.0709 80.29L51.5916 98.8389C54.8682 100.16 58.197 101.349 61.577 102.405L67.5425 83.3156ZM59.0709 80.29C56.4485 79.2326 53.9771 78.0369 51.6501 76.7072L41.7273 94.0721C44.869 95.8674 48.1593 97.4549 51.5916 98.8389L59.0709 80.29ZM51.8336 76.8147C49.8741 75.639 48.2175 74.3116 46.8177 72.8452L32.3506 86.6548C35.0525 89.4853 38.1321 91.9176 41.5437 93.9646L51.8336 76.8147ZM46.8947 72.9268C45.6487 71.5918 44.638 70.0522 43.8602 68.2478L25.4937 76.1643C27.1573 80.0239 29.4181 83.5137 32.2736 86.5732L46.8947 72.9268ZM43.8845 68.3046C43.2746 66.8653 42.8459 64.934 42.8459 62.3184H22.8459C22.8459 67.1246 23.6379 71.7851 25.4694 76.1075L43.8845 68.3046ZM42.8459 62.3184C42.8459 58.6582 43.2908 55.772 43.9972 53.5246L24.9173 47.5281C23.4752 52.1166 22.8459 57.0918 22.8459 62.3184H42.8459ZM43.9705 53.6081C44.7745 51.1262 45.8158 49.2077 46.9974 47.7091L31.292 35.326C28.4697 38.9055 26.386 42.993 24.9439 47.4446L43.9705 53.6081ZM46.9974 47.7091C48.2886 46.0716 49.7939 44.7226 51.5492 43.6255L40.9492 26.6655C37.2358 28.9864 34.0048 31.8854 31.292 35.326L46.9974 47.7091ZM51.6568 43.5573C53.5997 42.3083 55.7832 41.2858 58.2489 40.513L52.2672 21.4284C48.1898 22.7064 44.3675 24.4671 40.8416 26.7337L51.6568 43.5573ZM58.3777 40.4716C60.9795 39.6173 63.7969 38.9953 66.8499 38.629L64.4669 18.7714C60.1957 19.284 56.0795 20.1757 52.1383 21.4698L58.3777 40.4716ZM66.9629 38.6147C70.2284 38.1851 73.5765 37.9678 77.0109 37.9678V17.9678C72.7306 17.9678 68.5103 18.2388 64.3539 18.7857L66.9629 38.6147ZM77.0109 37.9678C81.6795 37.9678 85.7061 38.4012 89.1502 39.1839L93.5826 19.6813C88.433 18.5109 82.8892 17.9678 77.0109 17.9678V37.9678ZM89.1739 39.1893C92.8163 40.0078 96.0628 41.1492 98.9539 42.5755L107.802 24.6394C103.369 22.4524 98.6079 20.8105 93.5589 19.6759L89.1739 39.1893ZM98.9539 42.5755C101.923 44.0402 104.592 45.7797 106.986 47.7879L119.838 32.4641C116.178 29.3942 112.158 26.7879 107.802 24.6394L98.9539 42.5755ZM107.12 47.8984C109.735 50.0152 112.203 52.3959 114.522 55.0522L129.588 41.899C126.536 38.403 123.242 35.2172 119.704 32.3535L107.12 47.8984ZM114.932 41.4563L99.991 56.6175L114.236 70.656L129.177 55.4949L114.932 41.4563ZM116.6 60.4744C115.112 56.0084 113 51.8828 110.239 48.1596L94.1731 60.0708C95.6121 62.0118 96.7716 64.2338 97.6266 66.799L116.6 60.4744ZM110.306 48.2501C107.757 44.7312 104.833 41.6293 101.513 39.0116L89.1299 54.7169C90.888 56.1031 92.5535 57.8352 94.1068 59.9803L110.306 48.2501ZM101.605 39.0848C98.3331 36.4423 94.778 34.3293 90.9388 32.8475L83.7373 51.506C85.4646 52.1727 87.2317 53.1847 89.0381 54.6437L101.605 39.0848ZM91.08 32.9033C87.2952 31.376 83.3395 30.4922 79.2814 30.4922V50.4922C80.3992 50.4922 81.8146 50.7314 83.5961 51.4503L91.08 32.9033ZM79.2814 30.4922C75.4373 30.4922 71.7598 30.7701 68.2806 31.37L71.6788 51.0792C73.8636 50.7025 76.3873 50.4922 79.2814 50.4922V30.4922ZM68.4463 31.3429C64.7774 31.9122 61.2383 32.9486 58.0154 34.6368L67.2955 52.3534C68.1742 51.8932 69.5179 51.4159 71.5131 51.1063L68.4463 31.3429ZM58.0967 34.5947C54.5756 36.3982 51.6123 39.0258 49.4751 42.4638L66.4608 53.0225C66.5698 52.8472 66.7314 52.6428 67.2142 52.3956L58.0967 34.5947ZM49.541 42.3593C47.1509 46.1003 46.2834 50.2909 46.2834 54.335H66.2834C66.2834 53.1056 66.5389 52.9016 66.3949 53.1271L49.541 42.3593ZM46.2834 54.335C46.2834 57.7412 46.9601 61.315 48.8283 64.6118L66.2287 54.7515C66.3248 54.9211 66.3432 55.0173 66.3341 54.9783C66.3229 54.9303 66.2834 54.7307 66.2834 54.335H46.2834ZM48.8283 64.6118C50.3478 67.2933 52.3724 69.578 54.8244 71.417L66.8244 55.417C66.5421 55.2052 66.3693 54.9996 66.2287 54.7515L48.8283 64.6118ZM54.9593 71.5164C57.1191 73.0804 59.4692 74.3316 61.9607 75.3005L69.2096 56.6604C68.1855 56.2622 67.3618 55.8044 66.6895 55.3176L54.9593 71.5164ZM62.1887 75.386C64.2336 76.1244 66.3247 76.7738 68.4601 77.3358L73.55 57.9943C71.9746 57.5797 70.4524 57.106 68.9816 56.5749L62.1887 75.386ZM68.5213 77.3517C70.5408 77.8695 72.52 78.3385 74.4582 78.7575L78.6848 59.2093C77.0097 58.8471 75.2779 58.4371 73.4888 57.9784L68.5213 77.3517ZM74.7599 78.8179C76.348 79.1105 77.7 79.4286 78.8371 79.7587L84.4133 60.5518C82.523 60.003 80.5059 59.5399 78.3831 59.1489L74.7599 78.8179ZM78.8992 79.7765C81.8141 80.6024 84.8768 81.4775 88.0873 82.4017L93.6202 63.1823C90.3854 62.251 87.2957 61.3683 84.3512 60.534L78.8992 79.7765ZM88.0873 82.4017C90.9697 83.2315 93.8107 84.2147 96.6114 85.3526L104.139 66.8232C100.69 65.422 97.1831 64.208 93.6202 63.1823L88.0873 82.4017ZM96.7367 85.4025C99.4249 86.4526 101.966 87.6621 104.366 89.0276L114.256 71.6443C110.992 69.7871 107.575 68.1646 104.014 66.7733L96.7367 85.4025ZM104.366 89.0276C106.396 90.1827 108.108 91.522 109.555 93.0343L124.008 79.2098C121.158 76.23 117.89 73.7118 114.256 71.6443L104.366 89.0276ZM109.631 93.1132C110.893 94.4036 111.93 95.9348 112.733 97.7886L131.084 89.8364C129.348 85.8309 126.967 82.235 123.932 79.1309L109.631 93.1132ZM112.758 97.8451C113.369 99.2332 113.813 101.137 113.813 103.773H133.813C133.813 98.8903 132.987 94.1536 131.059 89.7799L112.758 97.8451Z" fill="#EAE3E3" mask="url(#path-1-outside-1_14_147)"/>
<mask id="path-3-outside-2_14_147" maskUnits="userSpaceOnUse" x="196.584" y="20" width="138" height="126" fill="black">
<rect fill="white" x="196.584" y="20" width="138" height="126"/>
<path d="M235.668 136H206.591V30.5312H258.447C263.33 30.5312 268.041 31.1172 272.582 32.2891C277.123 33.4121 281.127 35.2188 284.594 37.709C288.11 40.1504 290.893 43.3242 292.944 47.2305C295.043 51.1367 296.093 55.873 296.093 61.4395C296.093 65.7852 295.165 69.8867 293.31 73.7441C291.503 77.5527 289.062 80.9707 285.986 83.998C282.958 86.9766 279.467 89.4668 275.512 91.4688C271.557 93.4219 267.456 94.7158 263.207 95.3506C265.112 98.5732 267.089 101.625 269.14 104.506C271.24 107.387 273.339 110.097 275.439 112.636C277.587 115.126 279.711 117.445 281.811 119.594C283.911 121.693 285.913 123.622 287.817 125.38C292.309 129.481 296.752 133.021 301.147 136H264.892C261.962 133.217 259.179 129.872 256.542 125.966C254.296 122.646 252.026 118.544 249.731 113.661C247.485 108.729 245.751 103.041 244.531 96.5957H235.668V136ZM266.577 61.4395C266.577 54.3594 264.843 49.1592 261.376 45.8389C257.958 42.5186 252.807 40.8584 245.922 40.8584H235.668V86.6348H245.922C249.584 86.6348 252.709 85.9512 255.297 84.584C257.934 83.168 260.082 81.3125 261.743 79.0176C263.403 76.6738 264.623 73.9883 265.405 70.9609C266.186 67.9336 266.577 64.7598 266.577 61.4395Z"/>
</mask>
<path d="M235.668 136V146H245.668V136H235.668ZM206.591 136H196.591V146H206.591V136ZM206.591 30.5312V20.5312H196.591V30.5312H206.591ZM272.582 32.2891L270.084 41.9718L270.133 41.9845L270.182 41.9966L272.582 32.2891ZM284.594 37.709L278.76 45.8308L278.825 45.8773L278.89 45.9227L284.594 37.709ZM292.944 47.2305L284.09 51.8788L284.112 51.922L284.136 51.9649L292.944 47.2305ZM293.31 73.7441L284.298 69.4094L284.287 69.4338L284.275 69.4583L293.31 73.7441ZM285.986 83.998L292.999 91.1264L293 91.1255L285.986 83.998ZM275.512 91.4688L279.94 100.435L279.984 100.413L280.028 100.391L275.512 91.4688ZM263.207 95.3506L261.73 85.4604L247.045 87.6547L254.598 100.438L263.207 95.3506ZM269.14 104.506L260.993 110.305L261.026 110.351L261.059 110.396L269.14 104.506ZM275.439 112.636L267.732 119.008L267.799 119.089L267.867 119.168L275.439 112.636ZM281.811 119.594L274.659 126.583L274.699 126.624L274.74 126.665L281.811 119.594ZM287.817 125.38L281.034 132.728L281.054 132.746L281.074 132.765L287.817 125.38ZM301.147 136V146H333.725L306.757 127.722L301.147 136ZM264.892 136L258.005 143.25L260.899 146H264.892V136ZM256.542 125.966L264.831 120.371L264.825 120.363L256.542 125.966ZM249.731 113.661L240.63 117.806L240.655 117.86L240.681 117.915L249.731 113.661ZM244.531 96.5957L254.356 94.7348L252.815 86.5957H244.531V96.5957ZM235.668 96.5957V86.5957H225.668V96.5957H235.668ZM261.376 45.8389L254.409 53.0117L254.434 53.0364L254.46 53.0609L261.376 45.8389ZM235.668 40.8584V30.8584H225.668V40.8584H235.668ZM235.668 86.6348H225.668V96.6348H235.668V86.6348ZM255.297 84.584L259.969 93.4259L259.999 93.41L260.029 93.3939L255.297 84.584ZM261.743 79.0176L269.845 84.8788L269.874 84.8384L269.903 84.7978L261.743 79.0176ZM235.668 126H206.591V146H235.668V126ZM216.591 136V30.5312H196.591V136H216.591ZM206.591 40.5312H258.447V20.5312H206.591V40.5312ZM258.447 40.5312C262.521 40.5312 266.392 41.0191 270.084 41.9718L275.081 22.6063C269.691 21.2153 264.138 20.5312 258.447 20.5312V40.5312ZM270.182 41.9966C273.607 42.8436 276.421 44.1509 278.76 45.8308L290.428 29.5871C285.833 26.2866 280.64 23.9806 274.983 22.5815L270.182 41.9966ZM278.89 45.9227C281.043 47.4175 282.763 49.3517 284.09 51.8788L301.798 42.5821C299.023 37.2968 295.177 32.8833 290.298 29.4953L278.89 45.9227ZM284.136 51.9649C285.278 54.0904 286.093 57.1118 286.093 61.4395H306.093C306.093 54.6343 304.809 48.183 301.752 42.496L284.136 51.9649ZM286.093 61.4395C286.093 64.3081 285.493 66.9256 284.298 69.4094L302.322 78.0789C304.838 72.8478 306.093 67.2623 306.093 61.4395H286.093ZM284.275 69.4583C282.982 72.1833 281.233 74.6449 278.972 76.8706L293 91.1255C296.891 87.2965 300.024 82.9222 302.345 78.03L284.275 69.4583ZM278.972 76.8697C276.712 79.0939 274.072 80.9898 270.996 82.5466L280.028 100.391C284.863 97.9438 289.205 94.8592 292.999 91.1264L278.972 76.8697ZM271.084 82.5024C268.033 84.0091 264.925 84.9829 261.73 85.4604L264.685 105.241C269.986 104.449 275.081 102.835 279.94 100.435L271.084 82.5024ZM254.598 100.438C256.638 103.89 258.769 107.181 260.993 110.305L277.287 98.7065C275.409 96.0693 273.585 93.2562 271.817 90.2633L254.598 100.438ZM261.059 110.396C263.269 113.428 265.493 116.3 267.732 119.008L283.145 106.263C281.186 103.893 279.211 101.345 277.222 98.616L261.059 110.396ZM267.867 119.168C270.138 121.8 272.402 124.274 274.659 126.583L288.963 112.604C287.021 110.617 285.036 108.452 283.01 106.103L267.867 119.168ZM274.74 126.665C276.921 128.845 279.019 130.868 281.034 132.728L294.6 118.032C292.806 116.376 290.901 114.541 288.882 112.523L274.74 126.665ZM281.074 132.765C285.872 137.145 290.691 140.994 295.536 144.278L306.757 127.722C302.814 125.049 298.746 121.818 294.56 117.995L281.074 132.765ZM301.147 126H264.892V146H301.147V126ZM271.78 128.75C269.454 126.541 267.127 123.773 264.831 120.371L248.254 131.561C251.231 135.971 254.471 139.893 258.005 143.25L271.78 128.75ZM264.825 120.363C262.949 117.589 260.926 113.97 258.781 109.408L240.681 117.915C243.126 123.117 245.643 127.702 248.26 131.569L264.825 120.363ZM258.831 109.516C256.979 105.448 255.458 100.551 254.356 94.7348L234.705 98.4566C236.045 105.531 237.991 112.011 240.63 117.806L258.831 109.516ZM244.531 86.5957H235.668V106.596H244.531V86.5957ZM225.668 96.5957V136H245.668V96.5957H225.668ZM276.577 61.4395C276.577 52.9294 274.502 44.5637 268.293 38.6169L254.46 53.0609C255.184 53.7546 256.577 55.7893 256.577 61.4395H276.577ZM268.344 38.6661C262.369 32.8617 254.253 30.8584 245.922 30.8584V50.8584C251.361 50.8584 253.548 52.1755 254.409 53.0117L268.344 38.6661ZM245.922 30.8584H235.668V50.8584H245.922V30.8584ZM225.668 40.8584V86.6348H245.668V40.8584H225.668ZM235.668 96.6348H245.922V76.6348H235.668V96.6348ZM245.922 96.6348C250.811 96.6348 255.624 95.7212 259.969 93.4259L250.626 75.7421C249.795 76.1811 248.357 76.6348 245.922 76.6348V96.6348ZM260.029 93.3939C263.92 91.304 267.248 88.468 269.845 84.8788L253.64 73.1564C252.917 74.157 251.948 75.0319 250.566 75.774L260.029 93.3939ZM269.903 84.7978C272.326 81.3774 274.029 77.5598 275.088 73.4597L255.722 68.4622C255.218 70.4168 254.48 71.9702 253.582 73.2374L269.903 84.7978ZM275.088 73.4597C276.092 69.5672 276.577 65.5507 276.577 61.4395H256.577C256.577 63.9689 256.28 66.3 255.722 68.4622L275.088 73.4597Z" fill="#EAE3E3" mask="url(#path-3-outside-2_14_147)"/>
<mask id="path-5-outside-3_14_147" maskUnits="userSpaceOnUse" x="386.611" y="20" width="115" height="126" fill="black">
<rect fill="white" x="386.611" y="20" width="115" height="126"/>
<path d="M425.963 136H396.885V30.5312H453.868C458.799 30.5312 463.511 31.1904 468.004 32.5088C472.545 33.8271 476.548 35.8291 480.015 38.5146C483.482 41.1514 486.241 44.4961 488.292 48.5488C490.391 52.5527 491.441 57.2646 491.441 62.6846C491.441 66.1025 490.953 69.3252 489.976 72.3525C489 75.3311 487.632 78.0654 485.875 80.5557C484.166 83.0459 482.139 85.292 479.796 87.2939C477.452 89.2959 474.888 90.9805 472.105 92.3477C469.322 93.7148 466.368 94.7646 463.243 95.4971C460.167 96.2295 457.042 96.5957 453.868 96.5957H425.963V136ZM461.998 62.6846C461.998 55.8975 460.264 50.5752 456.798 46.7178C453.38 42.8115 448.204 40.8584 441.27 40.8584H425.963V86.6348H441.27C444.981 86.6348 448.131 86.0488 450.718 84.877C453.355 83.6562 455.504 81.9717 457.164 79.8232C458.824 77.6748 460.045 75.1602 460.826 72.2793C461.607 69.3496 461.998 66.1514 461.998 62.6846Z"/>
</mask>
<path d="M425.963 136V146H435.963V136H425.963ZM396.885 136H386.885V146H396.885V136ZM396.885 30.5312V20.5312H386.885V30.5312H396.885ZM468.004 32.5088L465.188 42.1041L465.201 42.1082L465.215 42.1123L468.004 32.5088ZM480.015 38.5146L473.891 46.4201L473.926 46.4473L473.962 46.4741L480.015 38.5146ZM488.292 48.5488L479.369 53.0639L479.402 53.1287L479.435 53.1929L488.292 48.5488ZM489.976 72.3525L499.479 75.468L499.486 75.4453L499.493 75.4226L489.976 72.3525ZM485.875 80.5557L477.705 74.7888L477.667 74.8428L477.63 74.8972L485.875 80.5557ZM463.243 95.4971L460.961 85.7609L460.944 85.7649L460.927 85.769L463.243 95.4971ZM425.963 96.5957V86.5957H415.963V96.5957H425.963ZM456.798 46.7178L449.272 53.3028L449.315 53.3528L449.36 53.4022L456.798 46.7178ZM425.963 40.8584V30.8584H415.963V40.8584H425.963ZM425.963 86.6348H415.963V96.6348H425.963V86.6348ZM450.718 84.877L454.843 93.9865L454.882 93.9692L454.92 93.9516L450.718 84.877ZM460.826 72.2793L470.477 74.8966L470.483 74.8763L470.488 74.8559L460.826 72.2793ZM425.963 126H396.885V146H425.963V126ZM406.885 136V30.5312H386.885V136H406.885ZM396.885 40.5312H453.868V20.5312H396.885V40.5312ZM453.868 40.5312C457.897 40.5312 461.658 41.0681 465.188 42.1041L470.82 22.9135C465.365 21.3127 459.702 20.5312 453.868 20.5312V40.5312ZM465.215 42.1123C468.643 43.1073 471.495 44.564 473.891 46.4201L486.139 30.6092C481.602 27.0942 476.446 24.547 470.792 22.9053L465.215 42.1123ZM473.962 46.4741C476.172 48.1551 477.971 50.3022 479.369 53.0639L497.214 44.0337C494.51 38.69 490.792 34.1476 486.069 30.5552L473.962 46.4741ZM479.435 53.1929C480.648 55.5056 481.441 58.5629 481.441 62.6846H501.441C501.441 55.9664 500.134 49.5999 497.148 43.9047L479.435 53.1929ZM481.441 62.6846C481.441 65.1379 481.093 67.3184 480.459 69.2825L499.493 75.4226C500.813 71.332 501.441 67.0672 501.441 62.6846H481.441ZM480.474 69.237C479.798 71.2975 478.873 73.1341 477.705 74.7888L494.044 86.3225C496.392 82.9968 498.201 79.3646 499.479 75.468L480.474 69.237ZM477.63 74.8972C476.426 76.6503 474.992 78.2454 473.301 79.6902L486.29 94.8977C489.286 92.3386 491.905 89.4414 494.12 86.2141L477.63 74.8972ZM473.301 79.6902C471.596 81.1463 469.734 82.371 467.696 83.3721L476.514 101.323C480.043 99.5899 483.308 97.4455 486.29 94.8977L473.301 79.6902ZM467.696 83.3721C465.614 84.3947 463.376 85.1948 460.961 85.7609L465.525 105.233C469.359 104.334 473.03 103.035 476.514 101.323L467.696 83.3721ZM460.927 85.769C458.612 86.3201 456.265 86.5957 453.868 86.5957V106.596C457.819 106.596 461.721 106.139 465.559 105.225L460.927 85.769ZM453.868 86.5957H425.963V106.596H453.868V86.5957ZM415.963 96.5957V136H435.963V96.5957H415.963ZM471.998 62.6846C471.998 54.2091 469.808 46.2336 464.235 40.0333L449.36 53.4022C450.721 54.9168 451.998 57.5858 451.998 62.6846H471.998ZM464.323 40.1327C458.424 33.3905 450.066 30.8584 441.27 30.8584V50.8584C446.342 50.8584 448.335 52.2326 449.272 53.3028L464.323 40.1327ZM441.27 30.8584H425.963V50.8584H441.27V30.8584ZM415.963 40.8584V86.6348H435.963V40.8584H415.963ZM425.963 96.6348H441.27V76.6348H425.963V96.6348ZM441.27 96.6348C445.987 96.6348 450.627 95.8958 454.843 93.9865L446.593 75.7674C445.634 76.2019 443.975 76.6348 441.27 76.6348V96.6348ZM454.92 93.9516C458.908 92.105 462.366 89.4449 465.077 85.9377L449.251 73.7088C448.641 74.4984 447.802 75.2075 446.517 75.8023L454.92 93.9516ZM465.077 85.9377C467.617 82.6502 469.386 78.9196 470.477 74.8966L451.174 69.662C450.703 71.4007 450.031 72.6994 449.251 73.7088L465.077 85.9377ZM470.488 74.8559C471.523 70.9756 471.998 66.8995 471.998 62.6846H451.998C451.998 65.4033 451.691 67.7236 451.163 69.7027L470.488 74.8559Z" fill="#EAE3E3" mask="url(#path-5-outside-3_14_147)"/>
</svg>
