<svg width="108" height="65" viewBox="0 0 108 65" fill="none" xmlns="http://www.w3.org/2000/svg">
<mask id="path-1-outside-1_109_487" maskUnits="userSpaceOnUse" x="7" y="10" width="34" height="52" fill="black">
<rect fill="white" x="7" y="10" width="34" height="52"/>
<path d="M23.8788 58.36C22.9988 58.36 21.9388 58.32 20.6988 58.24C19.4988 58.2 18.2588 58.12 16.9788 58C15.6988 57.92 14.4788 57.82 13.3188 57.7C12.1988 57.58 11.2588 57.44 10.4988 57.28V53.62C11.4988 53.7 12.7188 53.78 14.1588 53.86C15.5988 53.94 17.1388 54 18.7788 54.04C20.4588 54.08 22.0988 54.1 23.6988 54.1C25.4988 54.1 27.1188 53.92 28.5588 53.56C29.9988 53.2 31.1388 52.54 31.9788 51.58C32.8588 50.62 33.2988 49.24 33.2988 47.44V44.44C33.2988 42.4 32.7788 40.86 31.7388 39.82C30.6988 38.74 29.0188 38.2 26.6988 38.2H21.9588C18.3188 38.2 15.4588 37.4 13.3788 35.8C11.3388 34.2 10.3188 31.44 10.3188 27.52V25C10.3188 20.84 11.4388 17.88 13.6788 16.12C15.9188 14.36 19.0788 13.48 23.1588 13.48C24.4388 13.48 25.8788 13.56 27.4788 13.72C29.0788 13.84 30.6188 14 32.0988 14.2C33.6188 14.36 34.8788 14.54 35.8788 14.74V18.4C34.1188 18.24 32.1188 18.1 29.8788 17.98C27.6788 17.86 25.5988 17.8 23.6388 17.8C21.8388 17.8 20.2788 18.02 18.9588 18.46C17.6388 18.86 16.6188 19.6 15.8988 20.68C15.2188 21.72 14.8788 23.22 14.8788 25.18V27.22C14.8788 29.66 15.5188 31.34 16.7988 32.26C18.0788 33.18 19.8588 33.64 22.1387 33.64H27.2388C29.6788 33.64 31.6788 34.08 33.2388 34.96C34.7988 35.84 35.9588 37.06 36.7188 38.62C37.4788 40.14 37.8588 41.9 37.8588 43.9V47.32C37.8588 50.28 37.2188 52.56 35.9388 54.16C34.6988 55.76 33.0188 56.86 30.8988 57.46C28.8188 58.06 26.4788 58.36 23.8788 58.36Z"/>
</mask>
<path d="M20.6988 58.24L20.8919 55.2462L20.8453 55.2432L20.7987 55.2417L20.6988 58.24ZM16.9788 58L17.2588 55.0131L17.2124 55.0087L17.1659 55.0058L16.9788 58ZM13.3188 57.7L12.9991 60.6829L13.0101 60.6841L13.3188 57.7ZM10.4988 57.28H7.49875V59.7142L9.88072 60.2156L10.4988 57.28ZM10.4988 53.62L10.738 50.6296L7.49875 50.3704V53.62H10.4988ZM14.1588 53.86L14.3252 50.8646L14.3252 50.8646L14.1588 53.86ZM18.7788 54.04L18.7056 57.0391L18.7073 57.0392L18.7788 54.04ZM28.5588 53.56L29.2864 56.4704L29.2864 56.4704L28.5588 53.56ZM31.9788 51.58L29.7673 49.5528L29.7439 49.5784L29.721 49.6045L31.9788 51.58ZM31.7388 39.82L29.5778 41.9009L29.5974 41.9213L29.6174 41.9413L31.7388 39.82ZM13.3788 35.8L11.5273 38.1606L11.5384 38.1693L11.5496 38.1779L13.3788 35.8ZM13.6788 16.12L15.5322 18.479L15.5322 18.479L13.6788 16.12ZM27.4788 13.72L27.1802 16.7051L27.2173 16.7088L27.2544 16.7116L27.4788 13.72ZM32.0988 14.2L31.697 17.173L31.7408 17.1789L31.7847 17.1835L32.0988 14.2ZM35.8788 14.74H38.8788V12.2806L36.4671 11.7983L35.8788 14.74ZM35.8788 18.4L35.6071 21.3877L38.8788 21.6851V18.4H35.8788ZM29.8788 17.98L29.7154 20.9755L29.7183 20.9757L29.8788 17.98ZM18.9588 18.46L19.8288 21.3311L19.8683 21.3191L19.9074 21.306L18.9588 18.46ZM15.8988 20.68L13.4026 19.0159L13.3952 19.027L13.3878 19.0383L15.8988 20.68ZM16.7988 32.26L18.5497 29.824L18.5497 29.824L16.7988 32.26ZM33.2388 34.96L31.7648 37.5729L31.7648 37.5729L33.2388 34.96ZM36.7188 38.62L34.0218 39.9339L34.0286 39.9478L34.0355 39.9616L36.7188 38.62ZM35.9388 54.16L33.5961 52.2859L33.5817 52.304L33.5675 52.3223L35.9388 54.16ZM30.8988 57.46L30.0818 54.5734L30.0745 54.5754L30.0673 54.5775L30.8988 57.46ZM23.8788 55.36C23.0833 55.36 22.0915 55.3236 20.8919 55.2462L20.5056 61.2338C21.786 61.3164 22.9142 61.36 23.8788 61.36V55.36ZM20.7987 55.2417C19.6629 55.2038 18.483 55.1279 17.2588 55.0131L16.6987 60.9869C18.0345 61.1121 19.3346 61.1962 20.5988 61.2383L20.7987 55.2417ZM17.1659 55.0058C15.9225 54.9281 14.7432 54.8314 13.6274 54.7159L13.0101 60.6841C14.2143 60.8086 15.475 60.9119 16.7916 60.9942L17.1659 55.0058ZM13.6383 54.7171C12.5783 54.6035 11.7452 54.4766 11.1168 54.3444L9.88072 60.2156C10.7723 60.4034 11.8192 60.5565 12.9992 60.6829L13.6383 54.7171ZM13.4988 57.28V53.62H7.49875V57.28H13.4988ZM10.2595 56.6104C11.2917 56.693 12.5376 56.7746 13.9923 56.8554L14.3252 50.8646C12.8999 50.7854 11.7058 50.707 10.738 50.6296L10.2595 56.6104ZM13.9923 56.8554C15.4673 56.9373 17.0386 56.9985 18.7056 57.0391L18.8519 51.0409C17.2389 51.0015 15.7302 50.9427 14.3252 50.8646L13.9923 56.8554ZM18.7073 57.0392C20.41 57.0797 22.0738 57.1 23.6988 57.1V51.1C22.1237 51.1 20.5075 51.0803 18.8502 51.0408L18.7073 57.0392ZM23.6988 57.1C25.6941 57.1 27.5644 56.9009 29.2864 56.4704L27.8311 50.6496C26.6731 50.9391 25.3034 51.1 23.6988 51.1V57.1ZM29.2864 56.4704C31.2199 55.987 32.9308 55.0477 34.2365 53.5555L29.721 49.6045C29.3467 50.0323 28.7776 50.413 27.8311 50.6496L29.2864 56.4704ZM34.1902 53.6072C35.7436 51.9126 36.2988 49.7018 36.2988 47.44H30.2988C30.2988 48.7782 29.974 49.3274 29.7673 49.5528L34.1902 53.6072ZM36.2988 47.44V44.44H30.2988V47.44H36.2988ZM36.2988 44.44C36.2988 41.918 35.6512 39.4898 33.8601 37.6987L29.6174 41.9413C29.9063 42.2302 30.2988 42.882 30.2988 44.44H36.2988ZM33.8997 37.7391C32.0492 35.8174 29.396 35.2 26.6988 35.2V41.2C28.6415 41.2 29.3483 41.6626 29.5778 41.9009L33.8997 37.7391ZM26.6988 35.2H21.9588V41.2H26.6988V35.2ZM21.9588 35.2C18.7289 35.2 16.594 34.4884 15.2079 33.4221L11.5496 38.1779C14.3235 40.3116 17.9086 41.2 21.9588 41.2V35.2ZM15.2302 33.4394C14.2256 32.6515 13.3188 31.0021 13.3188 27.52H7.31875C7.31875 31.8779 8.45193 35.7485 11.5273 38.1606L15.2302 33.4394ZM13.3188 27.52V25H7.31875V27.52H13.3188ZM13.3188 25C13.3188 21.3202 14.3032 19.4446 15.5322 18.479L11.8253 13.761C8.57428 16.3154 7.31875 20.3598 7.31875 25H13.3188ZM15.5322 18.479C17.0576 17.2804 19.4682 16.48 23.1588 16.48V10.48C18.6893 10.48 14.7799 11.4396 11.8253 13.761L15.5322 18.479ZM23.1588 16.48C24.3177 16.48 25.6556 16.5526 27.1802 16.7051L27.7773 10.7349C26.1019 10.5674 24.5598 10.48 23.1588 10.48V16.48ZM27.2544 16.7116C28.7994 16.8275 30.2801 16.9815 31.697 17.173L32.5005 11.227C30.9574 11.0185 29.3581 10.8525 27.7031 10.7284L27.2544 16.7116ZM31.7847 17.1835C33.2531 17.3381 34.4138 17.5064 35.2904 17.6817L36.4671 11.7983C35.3437 11.5736 33.9844 11.3819 32.4128 11.2165L31.7847 17.1835ZM32.8788 14.74V18.4H38.8788V14.74H32.8788ZM36.1504 15.4123C34.3451 15.2482 32.307 15.1058 30.0392 14.9843L29.7183 20.9757C31.9305 21.0942 33.8924 21.2318 35.6071 21.3877L36.1504 15.4123ZM30.0421 14.9844C27.7943 14.8618 25.6594 14.8 23.6388 14.8V20.8C25.5381 20.8 27.5632 20.8582 29.7154 20.9755L30.0421 14.9844ZM23.6388 14.8C21.6059 14.8 19.7107 15.0471 18.0101 15.6139L19.9074 21.306C20.8468 20.9929 22.0716 20.8 23.6388 20.8V14.8ZM18.0887 15.5889C16.1481 16.177 14.5336 17.3194 13.4026 19.0159L18.3949 22.3441C18.7039 21.8806 19.1294 21.543 19.8288 21.3311L18.0887 15.5889ZM13.3878 19.0383C12.2536 20.7729 11.8788 22.9459 11.8788 25.18H17.8788C17.8788 23.4941 18.1839 22.6671 18.4097 22.3217L13.3878 19.0383ZM11.8788 25.18V27.22H17.8788V25.18H11.8788ZM11.8788 27.22C11.8788 30.0803 12.6265 32.9557 15.0478 34.696L18.5497 29.824C18.411 29.7243 17.8788 29.2397 17.8788 27.22H11.8788ZM15.0478 34.696C17.02 36.1135 19.4995 36.64 22.1387 36.64V30.64C20.218 30.64 19.1375 30.2465 18.5497 29.824L15.0478 34.696ZM22.1387 36.64H27.2388V30.64H22.1387V36.64ZM27.2388 36.64C29.3415 36.64 30.7884 37.0222 31.7648 37.5729L34.7127 32.3471C32.5691 31.1378 30.016 30.64 27.2388 30.64V36.64ZM31.7648 37.5729C32.8129 38.1642 33.5372 38.9393 34.0218 39.9339L39.4157 37.3061C38.3803 35.1807 36.7846 33.5158 34.7127 32.3471L31.7648 37.5729ZM34.0355 39.9616C34.5534 40.9974 34.8588 42.2837 34.8588 43.9H40.8588C40.8588 41.5163 40.4041 39.2826 39.402 37.2784L34.0355 39.9616ZM34.8588 43.9V47.32H40.8588V43.9H34.8588ZM34.8588 47.32C34.8588 49.8932 34.2973 51.4095 33.5961 52.2859L38.2814 56.0341C40.1402 53.7105 40.8588 50.6668 40.8588 47.32H34.8588ZM33.5675 52.3223C32.7554 53.3702 31.6426 54.1317 30.0818 54.5734L31.7157 60.3466C34.3949 59.5883 36.6421 58.1498 38.31 55.9977L33.5675 52.3223ZM30.0673 54.5775C28.3054 55.0858 26.252 55.36 23.8788 55.36V61.36C26.7055 61.36 29.3321 61.0342 31.7302 60.3425L30.0673 54.5775Z" fill="#EAE3E3" mask="url(#path-1-outside-1_109_487)"/>
<mask id="path-3-outside-2_109_487" maskUnits="userSpaceOnUse" x="38" y="10" width="38" height="51" fill="black">
<rect fill="white" x="38" y="10" width="38" height="51"/>
<path d="M41.618 58V13.84H59.018C60.458 13.84 61.858 14.02 63.218 14.38C64.578 14.7 65.798 15.32 66.878 16.24C67.998 17.16 68.878 18.48 69.5181 20.2C70.158 21.88 70.478 24.1 70.478 26.86C70.478 29.26 70.218 31.24 69.698 32.8C69.178 34.32 68.498 35.54 67.658 36.46C66.818 37.34 65.898 38 64.898 38.44C63.938 38.84 62.998 39.12 62.078 39.28L71.138 58H66.278L57.698 39.94C57.058 39.94 56.258 39.92 55.298 39.88C54.338 39.84 53.318 39.82 52.238 39.82C51.158 39.82 50.098 39.8 49.058 39.76C48.058 39.72 47.178 39.7 46.418 39.7V58H41.618ZM46.418 36.04H58.298C59.338 36.04 60.298 35.92 61.178 35.68C62.058 35.44 62.838 35 63.518 34.36C64.198 33.68 64.738 32.74 65.138 31.54C65.538 30.34 65.738 28.78 65.738 26.86C65.738 25.02 65.538 23.54 65.138 22.42C64.738 21.26 64.178 20.38 63.458 19.78C62.778 19.14 61.998 18.72 61.118 18.52C60.238 18.28 59.298 18.16 58.298 18.16H46.418V36.04Z"/>
</mask>
<path d="M41.618 58H38.618V61H41.618V58ZM41.618 13.84V10.84H38.618V13.84H41.618ZM63.218 14.38L62.4504 17.2801L62.4905 17.2907L62.5309 17.3002L63.218 14.38ZM66.878 16.24L64.9326 18.5237L64.9531 18.5411L64.9738 18.5582L66.878 16.24ZM69.5181 20.2L66.7064 21.2462L66.7104 21.2571L66.7146 21.268L69.5181 20.2ZM69.698 32.8L72.5365 33.7711L72.5404 33.7599L72.5441 33.7487L69.698 32.8ZM67.658 36.46L69.8281 38.5314L69.8511 38.5074L69.8735 38.4828L67.658 36.46ZM64.898 38.44L66.0519 41.2092L66.0792 41.1979L66.1063 41.1859L64.898 38.44ZM62.078 39.28L61.564 36.3244L57.6446 37.006L59.3777 40.5869L62.078 39.28ZM71.138 58V61H75.9228L73.8384 56.6931L71.138 58ZM66.278 58L63.5683 59.2874L64.382 61H66.278V58ZM57.698 39.94L60.4078 38.6526L59.5941 36.94H57.698V39.94ZM55.298 39.88L55.1732 42.8774L55.1732 42.8774L55.298 39.88ZM49.058 39.76L48.9381 42.7576L48.9427 42.7578L49.058 39.76ZM46.418 39.7V36.7H43.418V39.7H46.418ZM46.418 58V61H49.418V58H46.418ZM46.418 36.04H43.418V39.04H46.418V36.04ZM61.178 35.68L61.9674 38.5743L61.9674 38.5743L61.178 35.68ZM63.518 34.36L65.5741 36.5446L65.6072 36.5135L65.6394 36.4813L63.518 34.36ZM65.138 31.54L62.292 30.5913L62.292 30.5913L65.138 31.54ZM65.138 22.42L62.3019 23.398L62.3073 23.4135L62.3128 23.429L65.138 22.42ZM63.458 19.78L61.402 21.9646L61.4679 22.0267L61.5375 22.0847L63.458 19.78ZM61.118 18.52L60.3287 21.4143L60.3906 21.4312L60.4532 21.4454L61.118 18.52ZM46.418 18.16V15.16H43.418V18.16H46.418ZM44.618 58V13.84H38.618V58H44.618ZM41.618 16.84H59.018V10.84H41.618V16.84ZM59.018 16.84C60.2051 16.84 61.3468 16.988 62.4504 17.2801L63.9857 11.4799C62.3693 11.052 60.711 10.84 59.018 10.84V16.84ZM62.5309 17.3002C63.4195 17.5093 64.2097 17.9079 64.9326 18.5237L68.8234 13.9563C67.3864 12.7321 65.7366 11.8907 63.9052 11.4597L62.5309 17.3002ZM64.9738 18.5582C65.5889 19.0634 66.2028 19.8927 66.7064 21.2462L72.3297 19.1538C71.5533 17.0673 70.4072 15.2566 68.7823 13.9218L64.9738 18.5582ZM66.7146 21.268C67.1744 22.4749 67.478 24.2904 67.478 26.86H73.478C73.478 23.9096 73.1417 21.2851 72.3215 19.132L66.7146 21.268ZM67.478 26.86C67.478 29.0718 67.2348 30.7028 66.852 31.8513L72.5441 33.7487C73.2013 31.7772 73.478 29.4482 73.478 26.86H67.478ZM66.8596 31.8289C66.4359 33.0674 65.937 33.8957 65.4426 34.4372L69.8735 38.4828C71.0591 37.1843 71.9202 35.5726 72.5365 33.7711L66.8596 31.8289ZM65.488 34.3886C64.89 35.015 64.2889 35.4305 63.6898 35.6941L66.1063 41.1859C67.5072 40.5695 68.7461 39.665 69.8281 38.5314L65.488 34.3886ZM63.7442 35.6708C62.967 35.9946 62.2413 36.2066 61.564 36.3244L62.5921 42.2356C63.7548 42.0334 64.9091 41.6854 66.0519 41.2092L63.7442 35.6708ZM59.3777 40.5869L68.4377 59.3069L73.8384 56.6931L64.7784 37.9731L59.3777 40.5869ZM71.138 55H66.278V61H71.138V55ZM68.9878 56.7126L60.4078 38.6526L54.9883 41.2274L63.5683 59.2874L68.9878 56.7126ZM57.698 36.94C57.1147 36.94 56.3597 36.9216 55.4229 36.8826L55.1732 42.8774C56.1564 42.9184 57.0014 42.94 57.698 42.94V36.94ZM55.4229 36.8826C54.4166 36.8407 53.3547 36.82 52.238 36.82V42.82C53.2814 42.82 54.2595 42.8393 55.1732 42.8774L55.4229 36.8826ZM52.238 36.82C51.1951 36.82 50.1735 36.8007 49.1733 36.7622L48.9427 42.7578C50.0226 42.7993 51.121 42.82 52.238 42.82V36.82ZM49.1779 36.7624C48.1497 36.7213 47.2282 36.7 46.418 36.7V42.7C47.1279 42.7 47.9664 42.7187 48.9381 42.7576L49.1779 36.7624ZM43.418 39.7V58H49.418V39.7H43.418ZM46.418 55H41.618V61H46.418V55ZM46.418 39.04H58.298V33.04H46.418V39.04ZM58.298 39.04C59.5681 39.04 60.7971 38.8935 61.9674 38.5743L60.3887 32.7857C59.799 32.9465 59.108 33.04 58.298 33.04V39.04ZM61.9674 38.5743C63.333 38.2019 64.5452 37.513 65.5741 36.5446L61.462 32.1754C61.1309 32.487 60.7831 32.6781 60.3887 32.7857L61.9674 38.5743ZM65.6394 36.4813C66.7357 35.385 67.4814 33.9967 67.9841 32.4887L62.292 30.5913C61.9947 31.4833 61.6604 31.975 61.3967 32.2387L65.6394 36.4813ZM67.9841 32.4887C68.5244 30.8677 68.738 28.9534 68.738 26.86H62.738C62.738 28.6066 62.5517 29.8123 62.292 30.5913L67.9841 32.4887ZM68.738 26.86C68.738 24.8433 68.5242 22.9817 67.9633 21.411L62.3128 23.429C62.5519 24.0983 62.738 25.1967 62.738 26.86H68.738ZM67.9742 21.442C67.4496 19.9209 66.6302 18.5183 65.3786 17.4753L61.5375 22.0847C61.7259 22.2417 62.0265 22.5991 62.3019 23.398L67.9742 21.442ZM65.5141 17.5954C64.4589 16.6022 63.203 15.9174 61.7829 15.5946L60.4532 21.4454C60.7931 21.5226 61.0972 21.6778 61.402 21.9646L65.5141 17.5954ZM61.9074 15.6257C60.7467 15.3092 59.5393 15.16 58.298 15.16V21.16C59.0568 21.16 59.7294 21.2508 60.3287 21.4143L61.9074 15.6257ZM58.298 15.16H46.418V21.16H58.298V15.16ZM43.418 18.16V36.04H49.418V18.16H43.418Z" fill="#EAE3E3" mask="url(#path-3-outside-2_109_487)"/>
<mask id="path-5-outside-3_109_487" maskUnits="userSpaceOnUse" x="71" y="10" width="36" height="51" fill="black">
<rect fill="white" x="71" y="10" width="36" height="51"/>
<path d="M74.7352 58V13.84H92.3152C93.5952 13.84 94.8952 14.02 96.2152 14.38C97.5752 14.7 98.8352 15.36 99.9952 16.36C101.155 17.32 102.075 18.74 102.755 20.62C103.475 22.46 103.835 24.9 103.835 27.94C103.835 31.06 103.455 33.58 102.695 35.5C101.975 37.38 101.015 38.84 99.8152 39.88C98.6552 40.88 97.3952 41.56 96.0352 41.92C94.6752 42.28 93.3552 42.46 92.0752 42.46C91.4752 42.46 90.5952 42.44 89.4352 42.4C88.2752 42.36 87.0352 42.32 85.7152 42.28C84.4352 42.2 83.2352 42.12 82.1152 42.04C80.9952 41.96 80.1352 41.9 79.5352 41.86V58H74.7352ZM79.5352 38.2H91.4752C92.8752 38.2 94.1552 37.9 95.3152 37.3C96.4752 36.7 97.3752 35.66 98.0152 34.18C98.6952 32.7 99.0352 30.64 99.0352 28C99.0352 25.4 98.6952 23.4 98.0152 22C97.3752 20.56 96.5152 19.56 95.4352 19C94.3552 18.44 93.1752 18.16 91.8952 18.16H79.5352V38.2Z"/>
</mask>
<path d="M74.7352 58H71.7352V61H74.7352V58ZM74.7352 13.84V10.84H71.7352V13.84H74.7352ZM96.2152 14.38L95.4259 17.2743L95.4768 17.2882L95.5281 17.3002L96.2152 14.38ZM99.9952 16.36L98.0364 18.6322L98.0593 18.6519L98.0825 18.6712L99.9952 16.36ZM102.755 20.62L99.9341 21.6404L99.9473 21.677L99.9615 21.7132L102.755 20.62ZM102.695 35.5L99.9058 34.3959L99.8997 34.4114L99.8937 34.4271L102.695 35.5ZM99.8152 39.88L101.774 42.1522L101.78 42.1471L99.8152 39.88ZM96.0352 41.92L95.2676 39.0199L95.2676 39.0199L96.0352 41.92ZM89.4352 42.4L89.5386 39.4018L89.5386 39.4018L89.4352 42.4ZM85.7152 42.28L85.5281 45.2742L85.5762 45.2772L85.6244 45.2786L85.7152 42.28ZM82.1152 42.04L81.9015 45.0324L81.9015 45.0324L82.1152 42.04ZM79.5352 41.86L79.7348 38.8666L76.5352 38.6533V41.86H79.5352ZM79.5352 58V61H82.5352V58H79.5352ZM79.5352 38.2H76.5352V41.2H79.5352V38.2ZM95.3152 37.3L93.937 34.6353L93.937 34.6353L95.3152 37.3ZM98.0152 34.18L95.2892 32.9275L95.2751 32.9582L95.2617 32.9893L98.0152 34.18ZM98.0152 22L95.2738 23.2184L95.2945 23.2649L95.3167 23.3107L98.0152 22ZM79.5352 18.16V15.16H76.5352V18.16H79.5352ZM77.7352 58V13.84H71.7352V58H77.7352ZM74.7352 16.84H92.3152V10.84H74.7352V16.84ZM92.3152 16.84C93.3109 16.84 94.3455 16.9796 95.4259 17.2743L97.0046 11.4857C95.445 11.0604 93.8796 10.84 92.3152 10.84V16.84ZM95.5281 17.3002C96.3742 17.4993 97.2062 17.9165 98.0364 18.6322L101.954 14.0878C100.464 12.8035 98.7762 11.9007 96.9024 11.4597L95.5281 17.3002ZM98.0825 18.6712C98.716 19.1955 99.3784 20.1039 99.9341 21.6404L105.576 19.5996C104.772 17.3761 103.594 15.4445 101.908 14.0488L98.0825 18.6712ZM99.9615 21.7132C100.492 23.0693 100.835 25.094 100.835 27.94H106.835C106.835 24.706 106.458 21.8507 105.549 19.5268L99.9615 21.7132ZM100.835 27.94C100.835 30.8559 100.474 32.9592 99.9058 34.3959L105.485 36.6041C106.436 34.2008 106.835 31.2641 106.835 27.94H100.835ZM99.8937 34.4271C99.304 35.9668 98.5909 36.9712 97.8504 37.6129L101.78 42.1471C103.44 40.7088 104.647 38.7932 105.497 36.5729L99.8937 34.4271ZM97.8564 37.6078C97.0097 38.3377 96.1501 38.7863 95.2676 39.0199L96.8029 44.8201C98.6404 44.3337 100.301 43.4223 101.774 42.1522L97.8564 37.6078ZM95.2676 39.0199C94.1335 39.3201 93.0719 39.46 92.0752 39.46V45.46C93.6386 45.46 95.2169 45.2399 96.8029 44.8201L95.2676 39.0199ZM92.0752 39.46C91.5282 39.46 90.6896 39.4415 89.5386 39.4018L89.3318 45.3982C90.5009 45.4385 91.4223 45.46 92.0752 45.46V39.46ZM89.5386 39.4018C88.3739 39.3616 87.1297 39.3215 85.8061 39.2814L85.6244 45.2786C86.9407 45.3185 88.1765 45.3584 89.3319 45.3982L89.5386 39.4018ZM85.9024 39.2858C84.63 39.2063 83.439 39.1269 82.329 39.0476L81.9015 45.0324C83.0315 45.1131 84.2404 45.1937 85.5281 45.2742L85.9024 39.2858ZM82.329 39.0476C81.2075 38.9675 80.342 38.9071 79.7348 38.8666L79.3357 44.8534C79.9285 44.8929 80.7829 44.9525 81.9015 45.0324L82.329 39.0476ZM76.5352 41.86V58H82.5352V41.86H76.5352ZM79.5352 55H74.7352V61H79.5352V55ZM79.5352 41.2H91.4752V35.2H79.5352V41.2ZM91.4752 41.2C93.3195 41.2 95.0771 40.8007 96.6935 39.9647L93.937 34.6353C93.2333 34.9993 92.431 35.2 91.4752 35.2V41.2ZM96.6935 39.9647C98.602 38.9775 99.9205 37.3324 100.769 35.3707L95.2617 32.9893C94.83 33.9876 94.3485 34.4225 93.937 34.6353L96.6935 39.9647ZM100.741 35.4325C101.68 33.3899 102.035 30.8354 102.035 28H96.0352C96.0352 30.4446 95.7107 32.0101 95.2892 32.9275L100.741 35.4325ZM102.035 28C102.035 25.2122 101.683 22.6839 100.714 20.6893L95.3167 23.3107C95.7079 24.1161 96.0352 25.5878 96.0352 28H102.035ZM100.757 20.7816C99.9228 18.9053 98.6591 17.2923 96.8162 16.3367L94.0543 21.6633C94.3714 21.8277 94.8277 22.2147 95.2738 23.2184L100.757 20.7816ZM96.8162 16.3367C95.2871 15.5439 93.63 15.16 91.8952 15.16V21.16C92.7204 21.16 93.4233 21.3361 94.0543 21.6633L96.8162 16.3367ZM91.8952 15.16H79.5352V21.16H91.8952V15.16ZM76.5352 18.16V38.2H82.5352V18.16H76.5352Z" fill="#EAE3E3" mask="url(#path-5-outside-3_109_487)"/>
<circle cx="23.5" cy="46.5" r="1.5" stroke="#EAE3E3" stroke-width="2"/>
<circle cx="55.5" cy="27.5" r="1.5" stroke="#EAE3E3" stroke-width="2"/>
<circle cx="88.5" cy="28.5" r="1.5" stroke="#EAE3E3" stroke-width="2"/>
</svg>
