<svg width="761" height="415" viewBox="0 0 761 415" fill="none" xmlns="http://www.w3.org/2000/svg">
<g filter="url(#filter0_d_27_55)">
<mask id="path-1-outside-1_27_55" maskUnits="userSpaceOnUse" x="64" y="70" width="224" height="252" fill="black">
<rect fill="white" x="64" y="70" width="224" height="252"/>
<path d="M270.823 237.547C270.823 246.629 269.651 254.637 267.307 261.57C265.061 268.504 261.839 274.51 257.639 279.588C253.538 284.666 248.655 288.914 242.991 292.332C237.327 295.75 231.126 298.484 224.387 300.535C217.747 302.586 210.667 304.051 203.147 304.93C195.725 305.809 188.157 306.248 180.442 306.248C170.286 306.248 160.911 305.467 152.317 303.904C143.723 302.439 135.618 300.096 128.001 296.873C120.481 293.553 113.206 289.305 106.174 284.129C99.2408 278.953 92.3073 272.654 85.3737 265.232L115.256 234.91C117.991 241.648 121.751 247.898 126.536 253.66C131.321 259.324 136.546 264.207 142.21 268.309C147.971 272.41 153.928 275.633 160.081 277.977C166.233 280.32 172.044 281.492 177.512 281.492C183.958 281.492 190.012 281.053 195.676 280.174C201.34 279.197 206.272 277.635 210.471 275.486C214.671 273.338 217.942 270.506 220.286 266.99C222.727 263.377 223.948 258.885 223.948 253.514C223.948 249.412 223.02 245.896 221.165 242.967C219.309 240.037 216.868 237.547 213.84 235.496C210.911 233.348 207.542 231.541 203.733 230.076C199.924 228.611 196.018 227.391 192.014 226.414C188.108 225.34 184.251 224.412 180.442 223.631C176.633 222.752 173.264 221.873 170.335 220.994C164.573 219.334 158.567 217.576 152.317 215.721C146.067 213.768 139.915 211.57 133.86 209.129C127.805 206.688 122.044 203.904 116.575 200.779C111.204 197.557 106.467 193.797 102.366 189.5C98.2643 185.105 94.9928 180.076 92.5514 174.412C90.11 168.65 88.8893 162.059 88.8893 154.637C88.8893 145.75 89.9635 137.889 92.1119 131.053C94.358 124.119 97.483 118.113 101.487 113.035C105.491 107.957 110.227 103.709 115.696 100.291C121.165 96.7754 127.171 93.9922 133.714 91.9414C140.256 89.793 147.19 88.2793 154.514 87.4004C161.936 86.4238 169.505 85.9355 177.219 85.9355C187.766 85.9355 197.337 86.9121 205.93 88.8652C214.622 90.8184 222.63 93.6016 229.954 97.2148C237.278 100.828 243.967 105.174 250.022 110.252C256.174 115.232 261.936 120.799 267.307 126.951L237.424 157.273C235.081 150.242 231.809 143.895 227.61 138.23C223.508 132.566 218.919 127.732 213.84 123.729C208.762 119.627 203.44 116.502 197.874 114.354C192.307 112.107 186.936 110.984 181.76 110.984C175.022 110.984 168.821 111.473 163.157 112.449C157.493 113.328 152.61 114.842 148.508 116.99C144.505 119.041 141.38 121.873 139.133 125.486C136.887 129.002 135.764 133.396 135.764 138.67C135.764 142.869 136.594 146.434 138.255 149.363C139.915 152.293 142.112 154.783 144.846 156.834C147.678 158.885 150.852 160.594 154.368 161.961C157.883 163.23 161.497 164.354 165.208 165.33C169.016 166.307 172.727 167.186 176.34 167.967C180.051 168.65 183.421 169.432 186.448 170.311C192.307 171.971 198.46 173.729 204.905 175.584C211.35 177.439 217.698 179.637 223.948 182.176C230.198 184.617 236.155 187.449 241.819 190.672C247.483 193.895 252.464 197.752 256.76 202.244C261.057 206.639 264.475 211.766 267.014 217.625C269.553 223.387 270.823 230.027 270.823 237.547Z"/>
</mask>
<path d="M267.307 261.57L253.097 256.767L253.067 256.857L253.037 256.948L267.307 261.57ZM257.639 279.588L246.08 270.029L246.024 270.096L245.97 270.163L257.639 279.588ZM224.387 300.535L220.02 286.185L219.991 286.194L219.961 286.203L224.387 300.535ZM203.147 304.93L201.406 290.031L201.394 290.032L201.383 290.034L203.147 304.93ZM152.317 303.904L155 289.146L154.919 289.131L154.837 289.118L152.317 303.904ZM128.001 296.873L121.942 310.595L122.048 310.642L122.156 310.688L128.001 296.873ZM106.174 284.129L97.2015 296.149L97.2418 296.179L97.2822 296.209L106.174 284.129ZM85.3737 265.232L74.6899 254.704L64.5871 264.955L74.4126 275.472L85.3737 265.232ZM115.256 234.91L129.156 229.27L120.58 208.138L104.573 224.381L115.256 234.91ZM126.536 253.66L114.996 263.244L115.037 263.292L115.077 263.34L126.536 253.66ZM142.21 268.309L133.412 280.458L133.461 280.493L133.511 280.529L142.21 268.309ZM195.676 280.174L197.976 294.996L198.101 294.977L198.225 294.956L195.676 280.174ZM220.286 266.99L207.857 258.592L207.831 258.631L207.805 258.67L220.286 266.99ZM213.84 235.496L204.97 247.592L205.196 247.758L205.428 247.915L213.84 235.496ZM192.014 226.414L188.037 240.877L188.248 240.935L188.46 240.987L192.014 226.414ZM180.442 223.631L177.069 238.247L177.248 238.288L177.428 238.325L180.442 223.631ZM170.335 220.994L174.645 206.627L174.566 206.603L174.488 206.581L170.335 220.994ZM152.317 215.721L147.843 230.038L147.945 230.07L148.048 230.1L152.317 215.721ZM116.575 200.779L108.857 213.642L108.994 213.724L109.133 213.803L116.575 200.779ZM102.366 189.5L91.4 199.735L91.4574 199.796L91.5155 199.857L102.366 189.5ZM92.5514 174.412L78.7401 180.264L78.7582 180.307L78.7765 180.35L92.5514 174.412ZM92.1119 131.053L77.842 126.43L77.8217 126.493L77.802 126.555L92.1119 131.053ZM115.696 100.291L123.646 113.011L123.727 112.96L123.807 112.909L115.696 100.291ZM133.714 91.9414L138.2 106.255L138.297 106.224L138.393 106.193L133.714 91.9414ZM154.514 87.4004L156.301 102.294L156.386 102.283L156.471 102.272L154.514 87.4004ZM205.93 88.8652L202.606 103.492L202.624 103.496L202.642 103.5L205.93 88.8652ZM250.022 110.252L240.383 121.745L240.483 121.829L240.584 121.911L250.022 110.252ZM267.307 126.951L277.991 137.48L287.758 127.569L278.607 117.086L267.307 126.951ZM237.424 157.273L223.194 162.017L230.932 185.231L248.108 167.802L237.424 157.273ZM227.61 138.23L215.461 147.028L215.51 147.096L215.56 147.164L227.61 138.23ZM213.84 123.729L204.415 135.398L204.484 135.453L204.553 135.508L213.84 123.729ZM197.874 114.354L192.261 128.264L192.366 128.306L192.473 128.347L197.874 114.354ZM163.157 112.449L165.457 127.272L165.581 127.253L165.705 127.231L163.157 112.449ZM148.508 116.99L155.347 130.341L155.408 130.31L155.469 130.278L148.508 116.99ZM139.133 125.486L151.774 133.562L151.824 133.484L151.873 133.405L139.133 125.486ZM144.846 156.834L135.846 168.834L135.947 168.909L136.049 168.983L144.846 156.834ZM154.368 161.961L148.931 175.941L149.101 176.007L149.273 176.069L154.368 161.961ZM165.208 165.33L161.39 179.836L161.436 179.848L161.482 179.86L165.208 165.33ZM176.34 167.967L173.17 182.628L173.396 182.677L173.623 182.719L176.34 167.967ZM186.448 170.311L182.266 184.716L182.312 184.729L182.359 184.742L186.448 170.311ZM223.948 182.176L218.302 196.073L218.396 196.111L218.49 196.148L223.948 182.176ZM256.76 202.244L245.921 212.612L245.978 212.672L246.035 212.731L256.76 202.244ZM267.014 217.625L253.251 223.589L253.269 223.632L253.288 223.674L267.014 217.625ZM255.823 237.547C255.823 245.373 254.809 251.702 253.097 256.767L281.517 266.374C284.493 257.572 285.823 247.885 285.823 237.547H255.823ZM253.037 256.948C251.313 262.271 248.95 266.558 246.08 270.029L269.199 289.147C274.727 282.462 278.809 274.737 281.577 266.193L253.037 256.948ZM245.97 270.163C242.981 273.864 239.43 276.961 235.241 279.489L250.741 305.175C257.88 300.867 264.094 295.468 269.308 289.013L245.97 270.163ZM235.241 279.489C230.704 282.227 225.649 284.472 220.02 286.185L228.755 314.885C236.602 312.497 243.95 309.273 250.741 305.175L235.241 279.489ZM219.961 286.203C214.27 287.961 208.095 289.249 201.406 290.031L204.888 319.828C213.238 318.852 221.223 317.211 228.813 314.867L219.961 286.203ZM201.383 290.034C194.565 290.841 187.586 291.248 180.442 291.248V321.248C188.727 321.248 196.885 320.776 204.911 319.826L201.383 290.034ZM180.442 291.248C171.044 291.248 162.58 290.524 155 289.146L149.634 318.662C159.242 320.409 169.527 321.248 180.442 321.248V291.248ZM154.837 289.118C147.324 287.837 140.34 285.806 133.845 283.059L122.156 310.688C130.896 314.385 140.122 317.042 149.797 318.691L154.837 289.118ZM134.06 283.151C127.602 280.3 121.271 276.616 115.067 272.049L97.2822 296.209C105.141 301.994 113.361 306.806 121.942 310.595L134.06 283.151ZM115.147 272.109C109.038 267.548 102.762 261.872 96.3347 254.993L74.4126 275.472C81.8529 283.437 89.4433 290.358 97.2015 296.149L115.147 272.109ZM96.0574 275.761L125.94 245.439L104.573 224.381L74.6899 254.704L96.0574 275.761ZM101.357 240.55C104.688 248.759 109.257 256.332 114.996 263.244L138.075 244.077C134.245 239.464 131.293 234.538 129.156 229.27L101.357 240.55ZM115.077 263.34C120.599 269.876 126.707 275.602 133.412 280.458L151.007 256.159C146.384 252.812 142.043 248.772 137.994 243.98L115.077 263.34ZM133.511 280.529C140.234 285.315 147.312 289.164 154.741 291.994L165.421 263.959C160.545 262.102 155.708 259.505 150.909 256.089L133.511 280.529ZM154.741 291.994C162.26 294.858 169.889 296.492 177.512 296.492V266.492C174.199 266.492 170.206 265.782 165.421 263.959L154.741 291.994ZM177.512 296.492C184.634 296.492 191.464 296.007 197.976 294.996L193.376 265.351C188.56 266.099 183.281 266.492 177.512 266.492V296.492ZM198.225 294.956C205.067 293.776 211.5 291.809 217.303 288.84L203.639 262.133C201.044 263.46 197.614 264.618 193.128 265.392L198.225 294.956ZM217.303 288.84C223.514 285.663 228.841 281.199 232.767 275.311L207.805 258.67C207.043 259.813 205.827 261.013 203.639 262.133L217.303 288.84ZM232.715 275.388C237.184 268.773 238.948 261.179 238.948 253.514H208.948C208.948 256.591 208.27 257.981 207.857 258.592L232.715 275.388ZM238.948 253.514C238.948 247.097 237.472 240.681 233.837 234.941L208.492 250.993C208.568 251.112 208.948 251.727 208.948 253.514H238.948ZM233.837 234.941C230.819 230.176 226.893 226.22 222.253 223.077L205.428 247.915C206.843 248.874 207.799 249.898 208.492 250.993L233.837 234.941ZM222.711 223.4C218.586 220.375 214.017 217.96 209.118 216.076L198.348 244.076C201.066 245.122 203.235 246.32 204.97 247.592L222.711 223.4ZM209.118 216.076C204.706 214.379 200.188 212.968 195.569 211.841L188.46 240.987C191.848 241.813 195.143 242.844 198.348 244.076L209.118 216.076ZM195.992 211.951C191.78 210.793 187.601 209.787 183.456 208.937L177.428 238.325C180.9 239.037 184.436 239.887 188.037 240.877L195.992 211.951ZM183.815 209.015C180.24 208.19 177.194 207.391 174.645 206.627L166.024 235.362C169.335 236.355 173.027 237.314 177.069 238.247L183.815 209.015ZM174.488 206.581C168.768 204.932 162.801 203.186 156.586 201.341L148.048 230.1C154.333 231.966 160.378 233.736 166.182 235.408L174.488 206.581ZM156.791 201.404C150.924 199.57 145.15 197.508 139.47 195.217L128.25 223.041C134.679 225.633 141.21 227.965 147.843 230.038L156.791 201.404ZM139.47 195.217C134.022 193.021 128.875 190.531 124.017 187.756L109.133 213.803C115.213 217.277 121.588 220.354 128.25 223.041L139.47 195.217ZM124.292 187.917C120.01 185.348 116.341 182.417 113.216 179.143L91.5155 199.857C96.5937 205.177 102.397 209.766 108.857 213.642L124.292 187.917ZM113.332 179.265C110.437 176.164 108.103 172.597 106.326 168.475L78.7765 180.35C81.8823 187.555 86.0914 194.047 91.4 199.735L113.332 179.265ZM106.363 168.56C104.838 164.96 103.889 160.416 103.889 154.637H73.8893C73.8893 163.702 75.3825 172.34 78.7401 180.264L106.363 168.56ZM103.889 154.637C103.889 146.925 104.825 140.63 106.422 135.55L77.802 126.555C75.1018 135.147 73.8893 144.575 73.8893 154.637H103.889ZM106.382 135.675C108.149 130.219 110.493 125.84 113.266 122.322L89.7079 103.748C84.4735 110.387 80.5666 118.019 77.842 126.43L106.382 135.675ZM113.266 122.322C116.204 118.597 119.646 115.511 123.646 113.011L107.746 87.571C100.809 91.9068 94.778 97.3174 89.7079 103.748L113.266 122.322ZM123.807 112.909C128.089 110.156 132.866 107.927 138.2 106.255L129.227 77.628C121.475 80.0577 114.241 83.3945 107.585 87.6733L123.807 112.909ZM138.393 106.193C143.931 104.374 149.891 103.063 156.301 102.294L152.727 72.5072C144.489 73.4958 136.581 75.2117 129.034 77.69L138.393 106.193ZM156.471 102.272C163.225 101.384 170.139 100.936 177.219 100.936V70.9355C168.87 70.9355 160.648 71.4641 152.557 72.5286L156.471 102.272ZM177.219 100.936C186.859 100.936 195.291 101.83 202.606 103.492L209.255 74.2382C199.382 71.9944 188.673 70.9355 177.219 70.9355V100.936ZM202.642 103.5C210.278 105.216 217.15 107.624 223.317 110.667L236.59 83.7628C228.109 79.5789 218.965 76.4204 209.219 74.2302L202.642 103.5ZM223.317 110.667C229.602 113.767 235.278 117.463 240.383 121.745L259.661 98.7591C252.657 92.8847 244.954 87.8889 236.59 83.7628L223.317 110.667ZM240.584 121.911C246.044 126.331 251.186 131.293 256.007 136.816L278.607 117.086C272.686 110.304 266.304 104.134 259.46 98.5933L240.584 121.911ZM256.624 116.422L226.741 146.745L248.108 167.802L277.991 137.48L256.624 116.422ZM251.655 152.53C248.836 144.073 244.85 136.298 239.66 129.297L215.56 147.164C218.769 151.491 221.326 156.411 223.194 162.017L251.655 152.53ZM239.759 129.433C234.911 122.738 229.377 116.877 223.128 111.949L204.553 135.508C208.46 138.588 212.105 142.394 215.461 147.028L239.759 129.433ZM223.266 112.059C217.088 107.07 210.425 103.119 203.275 100.36L192.473 128.347C196.455 129.884 200.436 132.184 204.415 135.398L223.266 112.059ZM203.487 100.443C196.418 97.5909 189.141 95.9844 181.76 95.9844V125.984C184.731 125.984 188.197 126.624 192.261 128.264L203.487 100.443ZM181.76 95.9844C174.31 95.9844 167.243 96.5234 160.608 97.6673L165.705 127.231C170.399 126.422 175.735 125.984 181.76 125.984V95.9844ZM160.857 97.6266C153.937 98.7003 147.408 100.633 141.548 103.703L155.469 130.278C157.812 129.05 161.048 127.956 165.457 127.272L160.857 97.6266ZM141.67 103.64C135.388 106.858 130.161 111.507 126.394 117.567L151.873 133.405C152.598 132.239 153.621 131.225 155.347 130.341L141.67 103.64ZM126.493 117.41C122.346 123.901 120.764 131.286 120.764 138.67H150.764C150.764 135.507 151.428 134.103 151.774 133.562L126.493 117.41ZM120.764 138.67C120.764 144.829 121.987 151.081 125.204 156.758L151.305 141.968C151.202 141.786 150.764 140.909 150.764 138.67H120.764ZM125.204 156.758C127.899 161.513 131.485 165.563 135.846 168.834L153.846 144.834C152.739 144.004 151.931 143.073 151.305 141.968L125.204 156.758ZM136.049 168.983C139.996 171.842 144.315 174.146 148.931 175.941L159.804 147.981C157.389 147.042 155.36 145.928 153.644 144.685L136.049 168.983ZM149.273 176.069C153.219 177.494 157.259 178.749 161.39 179.836L169.025 150.824C165.734 149.958 162.547 148.967 159.462 147.853L149.273 176.069ZM161.482 179.86C165.463 180.881 169.36 181.804 173.17 182.628L179.51 153.306C176.094 152.567 172.569 151.732 168.933 150.8L161.482 179.86ZM173.623 182.719C176.933 183.328 179.803 184.001 182.266 184.716L190.63 155.905C187.038 154.862 183.17 153.972 179.058 153.215L173.623 182.719ZM182.359 184.742C188.196 186.396 194.328 188.148 200.755 189.999L209.055 161.169C202.591 159.309 196.418 157.545 190.537 155.879L182.359 184.742ZM200.755 189.999C206.69 191.707 212.539 193.731 218.302 196.073L229.594 168.279C222.857 165.542 216.01 163.172 209.055 161.169L200.755 189.999ZM218.49 196.148C224.085 198.333 229.385 200.856 234.401 203.709L249.237 177.634C242.924 174.043 236.311 170.901 229.406 168.204L218.49 196.148ZM234.401 203.709C238.863 206.248 242.677 209.221 245.921 212.612L267.6 191.876C262.25 186.283 256.104 181.541 249.237 177.634L234.401 203.709ZM246.035 212.731C249.002 215.765 251.411 219.344 253.251 223.589L280.778 211.661C277.539 204.188 273.112 197.512 267.485 191.757L246.035 212.731ZM253.288 223.674C254.84 227.196 255.823 231.712 255.823 237.547H285.823C285.823 228.342 284.266 219.577 280.741 211.576L253.288 223.674Z" fill="#F5F5F5" mask="url(#path-1-outside-1_27_55)"/>
<mask id="path-3-outside-2_27_55" maskUnits="userSpaceOnUse" x="274.98" y="76" width="254" height="241" fill="black">
<rect fill="white" x="274.98" y="76" width="254" height="241"/>
<path d="M348.444 302H290.29V91.0625H394.001C403.766 91.0625 413.19 92.2344 422.272 94.5781C431.354 96.8242 439.362 100.438 446.296 105.418C453.327 110.301 458.893 116.648 462.995 124.461C467.194 132.273 469.294 141.746 469.294 152.879C469.294 161.57 467.438 169.773 463.727 177.488C460.114 185.105 455.231 191.941 449.079 197.996C443.024 203.953 436.042 208.934 428.131 212.938C420.221 216.844 412.018 219.432 403.522 220.701C407.331 227.146 411.286 233.25 415.387 239.012C419.587 244.773 423.786 250.193 427.985 255.271C432.282 260.252 436.53 264.891 440.729 269.188C444.928 273.387 448.932 277.244 452.741 280.76C461.725 288.963 470.612 296.043 479.401 302H406.891C401.032 296.434 395.465 289.744 390.192 281.932C385.7 275.291 381.159 267.088 376.569 257.322C372.077 247.459 368.61 236.082 366.169 223.191H348.444V302ZM410.26 152.879C410.26 138.719 406.794 128.318 399.86 121.678C393.024 115.037 382.721 111.717 368.952 111.717H348.444V203.27H368.952C376.276 203.27 382.526 201.902 387.702 199.168C392.975 196.336 397.272 192.625 400.592 188.035C403.913 183.348 406.354 177.977 407.917 171.922C409.479 165.867 410.26 159.52 410.26 152.879Z"/>
</mask>
<path d="M348.444 302V317H363.444V302H348.444ZM290.29 302H275.29V317H290.29V302ZM290.29 91.0625V76.0625H275.29V91.0625H290.29ZM422.272 94.5781L418.524 109.102L418.597 109.121L418.671 109.139L422.272 94.5781ZM446.296 105.418L437.545 117.601L437.642 117.67L437.74 117.739L446.296 105.418ZM462.995 124.461L449.714 131.433L449.748 131.498L449.782 131.563L462.995 124.461ZM463.727 177.488L450.21 170.986L450.192 171.023L450.175 171.06L463.727 177.488ZM449.079 197.996L459.599 208.689L459.6 208.687L449.079 197.996ZM428.131 212.938L434.773 226.387L434.84 226.354L434.906 226.321L428.131 212.938ZM403.522 220.701L401.305 205.866L379.278 209.157L390.608 228.332L403.522 220.701ZM415.387 239.012L403.167 247.711L403.216 247.779L403.265 247.847L415.387 239.012ZM427.985 255.271L416.425 264.83L416.525 264.951L416.628 265.07L427.985 255.271ZM440.729 269.188L430.001 279.671L430.062 279.733L430.123 279.794L440.729 269.188ZM452.741 280.76L442.567 291.782L442.597 291.81L442.627 291.837L452.741 280.76ZM479.401 302V317H528.268L487.817 289.583L479.401 302ZM406.891 302L396.56 312.875L400.902 317H406.891V302ZM390.192 281.932L402.625 273.54L402.621 273.533L402.616 273.527L390.192 281.932ZM376.569 257.322L362.918 263.539L362.955 263.621L362.994 263.703L376.569 257.322ZM366.169 223.191L380.907 220.4L378.594 208.191H366.169V223.191ZM348.444 223.191V208.191H333.444V223.191H348.444ZM399.86 121.678L389.408 132.437L389.446 132.474L389.485 132.511L399.86 121.678ZM348.444 111.717V96.7168H333.444V111.717H348.444ZM348.444 203.27H333.444V218.27H348.444V203.27ZM387.702 199.168L394.709 212.431L394.754 212.407L394.799 212.383L387.702 199.168ZM400.592 188.035L412.746 196.827L412.79 196.766L412.833 196.705L400.592 188.035ZM348.444 287H290.29V317H348.444V287ZM305.29 302V91.0625H275.29V302H305.29ZM290.29 106.062H394.001V76.0625H290.29V106.062ZM394.001 106.062C402.554 106.062 410.716 107.087 418.524 109.102L426.02 80.054C415.664 77.3815 404.979 76.0625 394.001 76.0625V106.062ZM418.671 109.139C426.079 110.971 432.303 113.836 437.545 117.601L455.047 93.2352C446.421 87.0393 436.629 82.6769 425.873 80.0168L418.671 109.139ZM437.74 117.739C442.726 121.201 446.698 125.69 449.714 131.433L476.276 117.488C471.088 107.607 463.927 99.4001 454.851 93.0974L437.74 117.739ZM449.782 131.563C452.546 136.704 454.294 143.604 454.294 152.879H484.294C484.294 139.888 481.842 127.843 476.207 117.359L449.782 131.563ZM454.294 152.879C454.294 159.355 452.93 165.332 450.21 170.986L477.245 183.99C481.947 174.215 484.294 163.786 484.294 152.879H454.294ZM450.175 171.06C447.332 177.051 443.488 182.453 438.557 187.305L459.6 208.687C466.974 201.43 472.895 193.16 477.28 183.917L450.175 171.06ZM438.559 187.304C433.654 192.129 427.948 196.218 421.357 199.554L434.906 226.321C444.135 221.649 452.394 215.777 459.599 208.689L438.559 187.304ZM421.49 199.488C414.936 202.725 408.222 204.832 401.305 205.866L405.739 235.536C415.814 234.031 425.507 230.963 434.773 226.387L421.49 199.488ZM390.608 228.332C394.62 235.122 398.806 241.584 403.167 247.711L427.607 230.313C423.766 224.916 420.041 219.171 416.436 213.07L390.608 228.332ZM403.265 247.847C407.63 253.835 412.016 259.499 416.425 264.83L439.545 245.713C435.555 240.888 431.543 235.711 427.509 230.177L403.265 247.847ZM416.628 265.07C421.108 270.264 425.566 275.133 430.001 279.671L451.457 258.704C447.494 254.648 443.455 250.24 439.342 245.473L416.628 265.07ZM430.123 279.794C434.443 284.115 438.592 288.113 442.567 291.782L462.915 269.738C459.273 266.375 455.413 262.659 451.336 258.581L430.123 279.794ZM442.627 291.837C452.069 300.458 461.52 308.001 470.985 314.417L487.817 289.583C479.704 284.085 471.381 277.468 462.855 269.682L442.627 291.837ZM479.401 287H406.891V317H479.401V287ZM417.222 291.125C412.269 286.419 407.388 280.596 402.625 273.54L377.759 290.324C383.543 298.893 389.795 306.448 396.56 312.875L417.222 291.125ZM402.616 273.527C398.679 267.707 394.509 260.228 390.144 250.942L362.994 263.703C367.809 273.948 372.72 282.875 377.768 290.336L402.616 273.527ZM390.22 251.105C386.317 242.537 383.169 232.348 380.907 220.4L351.431 225.983C354.051 239.816 357.836 252.381 362.918 263.539L390.22 251.105ZM366.169 208.191H348.444V238.191H366.169V208.191ZM333.444 223.191V302H363.444V223.191H333.444ZM425.26 152.879C425.26 136.574 421.282 121.425 410.235 110.845L389.485 132.511C392.305 135.212 395.26 140.864 395.26 152.879H425.26ZM410.312 110.919C399.64 100.552 384.891 96.7168 368.952 96.7168V126.717C380.552 126.717 386.408 129.522 389.408 132.437L410.312 110.919ZM368.952 96.7168H348.444V126.717H368.952V96.7168ZM333.444 111.717V203.27H363.444V111.717H333.444ZM348.444 218.27H368.952V188.27H348.444V218.27ZM368.952 218.27C378.117 218.27 386.898 216.557 394.709 212.431L380.695 185.905C378.154 187.247 374.435 188.27 368.952 188.27V218.27ZM394.799 212.383C401.954 208.54 408.021 203.358 412.746 196.827L388.439 179.243C386.523 181.892 383.996 184.132 380.605 185.953L394.799 212.383ZM412.833 196.705C417.297 190.403 420.463 183.334 422.441 175.67L393.392 168.174C392.245 172.619 390.528 176.292 388.352 179.365L412.833 196.705ZM422.441 175.67C424.338 168.318 425.26 160.706 425.26 152.879H395.26C395.26 158.333 394.62 163.417 393.392 168.174L422.441 175.67Z" fill="#F5F5F5" mask="url(#path-3-outside-2_27_55)"/>
<mask id="path-5-outside-3_27_55" maskUnits="userSpaceOnUse" x="480" y="76" width="220" height="241" fill="black">
<rect fill="white" x="480" y="76" width="220" height="241"/>
<path d="M553.999 302H495.844V91.0625H609.809C619.672 91.0625 629.096 92.3809 638.081 95.0176C647.163 97.6543 655.171 101.658 662.104 107.029C669.038 112.303 674.555 118.992 678.657 127.098C682.856 135.105 684.956 144.529 684.956 155.369C684.956 162.205 683.979 168.65 682.026 174.705C680.073 180.662 677.339 186.131 673.823 191.111C670.405 196.092 666.352 200.584 661.665 204.588C656.977 208.592 651.85 211.961 646.284 214.695C640.717 217.43 634.809 219.529 628.559 220.994C622.407 222.459 616.157 223.191 609.809 223.191H553.999V302ZM626.069 155.369C626.069 141.795 622.602 131.15 615.669 123.436C608.833 115.623 598.481 111.717 584.614 111.717H553.999V203.27H584.614C592.036 203.27 598.335 202.098 603.51 199.754C608.784 197.312 613.081 193.943 616.401 189.646C619.721 185.35 622.163 180.32 623.725 174.559C625.288 168.699 626.069 162.303 626.069 155.369Z"/>
</mask>
<path d="M553.999 302V317H568.999V302H553.999ZM495.844 302H480.844V317H495.844V302ZM495.844 91.0625V76.0625H480.844V91.0625H495.844ZM638.081 95.0176L633.857 109.411L633.878 109.417L633.899 109.423L638.081 95.0176ZM662.104 107.029L652.918 118.888L652.971 118.928L653.024 118.968L662.104 107.029ZM678.657 127.098L665.273 133.87L665.322 133.967L665.373 134.064L678.657 127.098ZM682.026 174.705L696.279 179.378L696.291 179.344L696.302 179.31L682.026 174.705ZM673.823 191.111L661.568 182.461L661.511 182.542L661.455 182.624L673.823 191.111ZM628.559 220.994L625.136 206.39L625.111 206.396L625.085 206.402L628.559 220.994ZM553.999 223.191V208.191H538.999V223.191H553.999ZM615.669 123.436L604.38 133.313L604.446 133.388L604.512 133.462L615.669 123.436ZM553.999 111.717V96.7168H538.999V111.717H553.999ZM553.999 203.27H538.999V218.27H553.999V203.27ZM603.51 199.754L609.698 213.418L609.755 213.392L609.812 213.366L603.51 199.754ZM623.725 174.559L638.202 178.485L638.211 178.454L638.219 178.424L623.725 174.559ZM553.999 287H495.844V317H553.999V287ZM510.844 302V91.0625H480.844V302H510.844ZM495.844 106.062H609.809V76.0625H495.844V106.062ZM609.809 106.062C618.319 106.062 626.316 107.197 633.857 109.411L642.305 80.6246C631.877 77.5643 621.026 76.0625 609.809 76.0625V106.062ZM633.899 109.423C641.31 111.575 647.591 114.761 652.918 118.888L671.29 95.171C662.75 88.5558 653.015 83.7341 642.263 80.6124L633.899 109.423ZM653.024 118.968C658.072 122.808 662.151 127.701 665.273 133.87L692.041 120.325C686.959 110.283 680.003 101.797 671.185 95.0901L653.024 118.968ZM665.373 134.064C668.241 139.535 669.956 146.477 669.956 155.369H699.956C699.956 142.582 697.471 130.676 691.941 120.131L665.373 134.064ZM669.956 155.369C669.956 160.758 669.189 165.64 667.75 170.1L696.302 179.31C698.769 171.661 699.956 163.652 699.956 155.369H669.956ZM667.773 170.032C666.271 174.612 664.199 178.734 661.568 182.461L686.077 199.762C690.478 193.528 693.875 186.713 696.279 179.378L667.773 170.032ZM661.455 182.624C658.796 186.498 655.631 190.014 651.922 193.182L671.407 215.993C677.073 211.154 682.014 205.685 686.191 199.599L661.455 182.624ZM651.922 193.182C648.194 196.367 644.119 199.047 639.67 201.232L652.897 228.159C659.582 224.875 665.761 220.816 671.407 215.993L651.922 193.182ZM639.67 201.232C635.156 203.45 630.322 205.175 625.136 206.39L631.982 235.598C639.297 233.884 646.279 231.41 652.897 228.159L639.67 201.232ZM625.085 206.402C620.075 207.595 614.991 208.191 609.809 208.191V238.191C617.323 238.191 624.739 237.323 632.034 235.586L625.085 206.402ZM609.809 208.191H553.999V238.191H609.809V208.191ZM538.999 223.191V302H568.999V223.191H538.999ZM641.069 155.369C641.069 139.262 636.917 124.638 626.825 113.409L604.512 133.462C608.287 137.663 611.069 144.327 611.069 155.369H641.069ZM626.957 113.558C616.399 101.492 601.274 96.7168 584.614 96.7168V126.717C595.688 126.717 601.266 129.755 604.38 133.313L626.957 113.558ZM584.614 96.7168H553.999V126.717H584.614V96.7168ZM538.999 111.717V203.27H568.999V111.717H538.999ZM553.999 218.27H584.614V188.27H553.999V218.27ZM584.614 218.27C593.545 218.27 602.08 216.868 609.698 213.418L597.323 186.09C594.59 187.327 590.527 188.27 584.614 188.27V218.27ZM609.812 213.366C617.114 209.986 623.375 205.153 628.27 198.818L604.532 180.475C602.786 182.733 600.454 184.639 597.209 186.142L609.812 213.366ZM628.27 198.818C632.911 192.813 636.175 185.959 638.202 178.485L609.248 170.633C608.15 174.681 606.532 177.887 604.532 180.475L628.27 198.818ZM638.219 178.424C640.161 171.138 641.069 163.425 641.069 155.369H611.069C611.069 161.181 610.414 166.26 609.232 170.694L638.219 178.424Z" fill="#F5F5F5" mask="url(#path-5-outside-3_27_55)"/>
</g>
<defs>
<filter id="filter0_d_27_55" x="85.3737" y="85.9355" width="621.582" height="237.312" filterUnits="userSpaceOnUse" color-interpolation-filters="sRGB">
<feFlood flood-opacity="0" result="BackgroundImageFix"/>
<feColorMatrix in="SourceAlpha" type="matrix" values="0 0 0 0 0 0 0 0 0 0 0 0 0 0 0 0 0 0 127 0" result="hardAlpha"/>
<feOffset dx="18" dy="13"/>
<feGaussianBlur stdDeviation="2"/>
<feComposite in2="hardAlpha" operator="out"/>
<feColorMatrix type="matrix" values="0 0 0 0 0 0 0 0 0 0 0 0 0 0 0 0 0 0 0.25 0"/>
<feBlend mode="normal" in2="BackgroundImageFix" result="effect1_dropShadow_27_55"/>
<feBlend mode="normal" in="SourceGraphic" in2="effect1_dropShadow_27_55" result="shape"/>
</filter>
</defs>
</svg>
