<svg width="122" height="130" viewBox="0 0 122 130" fill="none" xmlns="http://www.w3.org/2000/svg">
<g clip-path="url(#clip0_140_52)">
<path d="M58.0438 79.5165L58.044 79.5166L58.0465 79.5031C58.3709 77.7451 59.0009 75.4633 59.7094 72.8974C59.9186 72.1398 60.1347 71.3574 60.3517 70.5564C61.2982 67.0632 62.2553 63.2427 62.696 59.7017C63.1347 56.1775 63.0748 52.8422 61.9068 50.3686C61.3168 49.1189 60.4425 48.0865 59.2139 47.3712C57.9892 46.6582 56.4449 46.2791 54.5413 46.2791C48.9163 46.2791 45.2222 50.7812 43.543 56.3856C41.8757 61.9503 42.1168 68.7957 44.4745 74.0284C43.7116 77.5249 43.0172 80.6986 42.3849 83.5878C39.4704 96.9071 37.8786 104.181 37.0107 109.158C35.9948 114.985 35.9668 117.69 35.9663 123.21C15.4361 112.808 1.30652 90.8894 1.30652 64.7302C1.30652 29.063 27.7388 0.5 60.5683 0.5C93.3904 0.5 119.834 29.0582 121.331 65.2863C121.326 100.942 94.9014 129.5 62.075 129.5C56.3433 129.5 51.0635 128.506 45.7838 126.988C50.0337 120.324 51.4329 114.032 53.5775 104.388C54.0735 102.158 54.6093 99.7486 55.2295 97.1137C57.78 101.148 63.5008 104.395 69.6087 104.395C79.3288 104.395 87.5065 99.677 93.2378 91.7444C98.9624 83.8211 102.247 72.6969 102.247 59.8362C102.247 40.539 86.9745 22.3484 64.084 22.3484C35.1449 22.3484 20.8988 44.3688 20.8988 63.0989C20.8988 73.3957 24.2827 80.5915 27.9371 84.5388C29.756 86.5035 31.6753 87.6976 33.3079 88.0203C34.1287 88.1825 34.9092 88.1297 35.5619 87.8022C36.2251 87.4694 36.6996 86.881 36.9441 86.0883L36.9663 86.0163V85.9409C36.9663 83.9856 37.3209 82.8058 37.6263 81.7898C37.7092 81.5138 37.7885 81.25 37.8561 80.9859C38.0169 80.3577 38.1072 79.7298 37.9775 78.9853C37.8495 78.2506 37.5143 77.442 36.8922 76.4305L36.8667 76.389L36.8337 76.3532C34.5398 73.8686 33.2015 69.9773 32.9465 65.4796C32.6919 60.9911 33.5207 55.9525 35.5001 51.2309C39.4546 41.7982 47.9719 33.6792 61.5728 33.6792C69.2429 33.6792 75.2569 36.222 79.354 40.4623C83.4538 44.7056 85.677 50.6932 85.677 57.6589C85.677 66.8442 83.806 75.3257 80.5277 81.4919C77.2457 87.665 72.6122 91.4268 67.0975 91.4268C61.3875 91.4268 56.6036 86.2766 58.0438 79.5165Z" fill="#F5F5F5" stroke="#F5F5F5"/>
</g>
<defs>
<clipPath id="clip0_140_52">
<rect width="121.024" height="130" fill="white" transform="translate(0.806519)"/>
</clipPath>
</defs>
</svg>
